<svg xmlns="http://www.w3.org/2000/svg" xmlns:xlink="http://www.w3.org/1999/xlink" width="500" zoomAndPan="magnify" viewBox="0 0 375 74.999997" height="100" preserveAspectRatio="xMidYMid meet" version="1.0"><defs><g/></defs><g fill="#ffffff" fill-opacity="1"><g transform="translate(185.543055, 42.992142)"><g/></g></g><g fill="#ffffff" fill-opacity="1"><g transform="translate(137.154763, 60.242141)"><g><path d="M 30.21875 -43.4375 C 35.132812 -43.4375 38.84375 -42.503906 41.34375 -40.640625 C 43.851562 -38.773438 45.109375 -36.066406 45.109375 -32.515625 C 45.109375 -30.566406 44.578125 -28.816406 43.515625 -27.265625 C 42.460938 -25.710938 40.925781 -24.523438 38.90625 -23.703125 C 40.394531 -23.203125 41.789062 -22.5 43.09375 -21.59375 C 44.394531 -20.6875 45.4375 -19.507812 46.21875 -18.0625 C 47.007812 -16.613281 47.40625 -14.851562 47.40625 -12.78125 C 47.40625 -10.257812 46.925781 -8.171875 45.96875 -6.515625 C 45.019531 -4.859375 43.769531 -3.550781 42.21875 -2.59375 C 40.664062 -1.644531 38.945312 -0.972656 37.0625 -0.578125 C 35.1875 -0.191406 33.296875 0 31.390625 0 L 9 0 L 9 -43.4375 Z M 30.03125 -36.984375 L 15.703125 -36.984375 L 15.703125 -25.625 L 30.78125 -25.625 C 32.757812 -25.664062 34.503906 -26.179688 36.015625 -27.171875 C 37.523438 -28.171875 38.28125 -29.578125 38.28125 -31.390625 C 38.28125 -33.421875 37.484375 -34.859375 35.890625 -35.703125 C 34.296875 -36.554688 32.34375 -36.984375 30.03125 -36.984375 Z M 31.078125 -19.171875 L 15.703125 -19.171875 L 15.703125 -6.453125 L 31.390625 -6.453125 C 34.078125 -6.453125 36.28125 -6.976562 38 -8.03125 C 39.71875 -9.09375 40.578125 -10.71875 40.578125 -12.90625 C 40.578125 -14.519531 40.085938 -15.78125 39.109375 -16.6875 C 38.140625 -17.601562 36.921875 -18.242188 35.453125 -18.609375 C 33.984375 -18.984375 32.523438 -19.171875 31.078125 -19.171875 Z M 31.078125 -19.171875 "/></g></g></g><g fill="#ffffff" fill-opacity="1"><g transform="translate(190.322303, 60.242141)"><g><path d="M 40.890625 -6.453125 L 40.890625 0 L 9 0 L 9 -43.4375 L 15.703125 -43.4375 L 15.703125 -6.453125 Z M 40.890625 -6.453125 "/></g></g></g></svg>