<svg xmlns="http://www.w3.org/2000/svg" xmlns:xlink="http://www.w3.org/1999/xlink" width="500" zoomAndPan="magnify" viewBox="0 0 375 37.5" height="50" preserveAspectRatio="xMidYMid meet" version="1.0"><defs><g/></defs><g fill="#ffffff" fill-opacity="1"><g transform="translate(186.534396, 21.21323)"><g/></g></g><g fill="#ffffff" fill-opacity="1"><g transform="translate(159.455209, 31.615331)"><g><path d="M 16.828125 -24.1875 C 19.566406 -24.1875 21.632812 -23.664062 23.03125 -22.625 C 24.425781 -21.59375 25.125 -20.085938 25.125 -18.109375 C 25.125 -17.023438 24.828125 -16.050781 24.234375 -15.1875 C 23.648438 -14.320312 22.796875 -13.660156 21.671875 -13.203125 C 22.503906 -12.921875 23.28125 -12.523438 24 -12.015625 C 24.726562 -11.515625 25.3125 -10.859375 25.75 -10.046875 C 26.1875 -9.242188 26.40625 -8.269531 26.40625 -7.125 C 26.40625 -5.71875 26.140625 -4.550781 25.609375 -3.625 C 25.078125 -2.707031 24.378906 -1.984375 23.515625 -1.453125 C 22.648438 -0.921875 21.691406 -0.546875 20.640625 -0.328125 C 19.597656 -0.109375 18.546875 0 17.484375 0 L 5.015625 0 L 5.015625 -24.1875 Z M 16.734375 -20.59375 L 8.75 -20.59375 L 8.75 -14.28125 L 17.140625 -14.28125 C 18.242188 -14.300781 19.21875 -14.585938 20.0625 -15.140625 C 20.90625 -15.691406 21.328125 -16.472656 21.328125 -17.484375 C 21.328125 -18.617188 20.878906 -19.421875 19.984375 -19.890625 C 19.097656 -20.359375 18.015625 -20.59375 16.734375 -20.59375 Z M 17.3125 -10.6875 L 8.75 -10.6875 L 8.75 -3.59375 L 17.484375 -3.59375 C 18.984375 -3.59375 20.210938 -3.882812 21.171875 -4.46875 C 22.128906 -5.0625 22.609375 -5.96875 22.609375 -7.1875 C 22.609375 -8.082031 22.335938 -8.785156 21.796875 -9.296875 C 21.253906 -9.804688 20.570312 -10.164062 19.75 -10.375 C 18.9375 -10.582031 18.125 -10.6875 17.3125 -10.6875 Z M 17.3125 -10.6875 "/></g></g></g><g fill="#ffffff" fill-opacity="1"><g transform="translate(189.068816, 31.615331)"><g><path d="M 22.78125 -3.59375 L 22.78125 0 L 5.015625 0 L 5.015625 -24.1875 L 8.75 -24.1875 L 8.75 -3.59375 Z M 22.78125 -3.59375 "/></g></g></g></svg>