<svg xmlns="http://www.w3.org/2000/svg" xmlns:xlink="http://www.w3.org/1999/xlink" width="500" zoomAndPan="magnify" viewBox="0 0 375 374.999991" height="500" preserveAspectRatio="xMidYMid meet" version="1.0"><defs><g/><clipPath id="ca5ee381e5"><path d="M 112.5 114.949219 L 207 114.949219 L 207 189 L 112.5 189 Z M 112.5 114.949219 " clip-rule="nonzero"/></clipPath><clipPath id="f560bdb8cd"><path d="M 147 162 L 262.5 162 L 262.5 245.449219 L 147 245.449219 Z M 147 162 " clip-rule="nonzero"/></clipPath><clipPath id="3235e06660"><path d="M 147 177 L 262 177 L 262 245.449219 L 147 245.449219 Z M 147 177 " clip-rule="nonzero"/></clipPath><clipPath id="0b7aae975d"><path d="M 239 186 L 262.5 186 L 262.5 215 L 239 215 Z M 239 186 " clip-rule="nonzero"/></clipPath></defs><g clip-path="url(#ca5ee381e5)"><path fill="#c85937" d="M 147.816406 188.019531 L 120.414062 151.800781 L 155.058594 158.414062 L 112.542969 114.953125 L 206.289062 165.691406 C 206.289062 165.691406 153.167969 152.429688 147.816406 188.019531 Z M 147.816406 188.019531 " fill-opacity="1" fill-rule="nonzero"/></g><path fill="#c85937" d="M 152.464844 186.695312 L 147.898438 182.488281 C 147.898438 182.488281 146.375 183.023438 148.128906 188.867188 C 157.988281 196.734375 164.371094 207.984375 164.371094 207.984375 C 164.371094 207.984375 170.351562 219.78125 171.195312 221.945312 C 172.042969 224.109375 183.617188 223.152344 181.050781 212.433594 C 178.488281 201.71875 170.769531 194.757812 164.597656 191.484375 C 158.421875 188.210938 152.464844 186.695312 152.464844 186.695312 Z M 152.464844 186.695312 " fill-opacity="1" fill-rule="nonzero"/><g clip-path="url(#f560bdb8cd)"><path fill="#d68933" d="M 147.976562 188.027344 C 147.976562 188.027344 147.332031 185.988281 147.351562 184.671875 C 147.367188 183.359375 147.933594 182.925781 148.429688 184.527344 C 148.925781 186.128906 150.027344 190.171875 150.671875 192.492188 C 151.316406 194.8125 152.355469 197.574219 153.652344 199.066406 C 154.945312 200.558594 163.269531 209.882812 165.230469 212.257812 C 167.191406 214.636719 169.878906 219.257812 170.417969 220.539062 C 170.546875 220.0625 170.125 218.863281 169.75 217.0625 C 169.375 215.265625 168.492188 209.871094 168.722656 207.5625 C 168.953125 205.253906 170.339844 199.972656 173.683594 203.367188 C 177.023438 206.757812 181 216.21875 182.472656 222.257812 C 183.945312 228.296875 185.210938 234.972656 185.429688 236.488281 C 185.648438 238.007812 185.820312 239.800781 187.242188 240.859375 C 188.664062 241.914062 191.503906 244.144531 198.390625 244.796875 C 205.277344 245.449219 218.953125 245.035156 226.585938 243.503906 C 234.222656 241.976562 247.484375 236.894531 250.660156 234.945312 C 253.832031 232.996094 259.234375 228.484375 259.984375 226.261719 C 260.730469 224.039062 260.121094 222.160156 260.121094 222.160156 C 260.121094 222.160156 260.765625 221.488281 260.953125 219.539062 C 261.136719 217.589844 261.125 215.476562 261.300781 214.402344 C 261.476562 213.328125 261.621094 211.257812 261.621094 211.257812 C 261.621094 211.257812 262.464844 208 261.667969 205 C 260.871094 202 259.382812 200.105469 259.382812 200.105469 C 259.382812 200.105469 257.226562 191.507812 240.59375 186.5 C 236.554688 184.730469 229.808594 182.445312 229.09375 182.15625 C 228.382812 181.867188 225.894531 180.082031 224.359375 178.746094 C 222.820312 177.410156 216.53125 171.144531 211.03125 168.082031 C 205.53125 165.015625 202.007812 163.453125 190.457031 162.820312 C 178.90625 162.183594 163.40625 162.519531 160.226562 163.882812 C 158.308594 164.707031 154.761719 167.648438 153.566406 170.710938 C 152.375 173.777344 152.113281 175.679688 150.976562 176.207031 C 149.839844 176.730469 149.070312 176.273438 148.523438 178.476562 C 147.972656 180.683594 147.554688 182.160156 147.308594 182.8125 C 147.066406 183.46875 146.835938 184.785156 147.214844 186.320312 C 147.59375 187.851562 147.933594 188.898438 147.933594 188.898438 Z M 147.976562 188.027344 " fill-opacity="1" fill-rule="nonzero"/></g><path fill="#c85937" d="M 255.804688 205.199219 C 255.226562 203.835938 252.585938 198.578125 249.089844 194.863281 C 245.59375 191.152344 242.054688 187.714844 236.425781 185.445312 C 232.835938 184 230.003906 183 228.421875 182.46875 C 228.472656 182.5 228.523438 182.535156 228.570312 182.570312 C 227.089844 183.921875 220.738281 184.765625 215.261719 185.316406 C 209.78125 185.871094 196.195312 186.882812 189.855469 187.152344 C 183.734375 187.417969 177.148438 187.117188 175.867188 187.003906 C 176.273438 187.308594 176.765625 187.605469 177.359375 187.871094 C 180.847656 189.433594 190.910156 193.996094 197.753906 197.753906 C 204.597656 201.515625 213.171875 206.972656 216.925781 209.453125 C 220.679688 211.9375 223.234375 214.402344 227.300781 214.578125 C 231.363281 214.753906 241.234375 212.734375 245.234375 211.671875 C 249.234375 210.609375 253.722656 208.957031 254.847656 208.214844 C 255.972656 207.472656 256.386719 206.5625 255.804688 205.199219 Z M 255.804688 205.199219 " fill-opacity="1" fill-rule="nonzero"/><path fill="#1d5888" d="M 168.34375 179.597656 C 168.34375 179.597656 166.808594 173.746094 165.507812 170.679688 C 164.203125 167.613281 162.59375 165.109375 160.679688 165.054688 C 158.769531 165 155.273438 166.863281 154.070312 169.808594 C 152.863281 172.75 153.105469 174.847656 153.832031 176.378906 C 154.558594 177.914062 156.449219 179.554688 158.195312 180.625 C 159.945312 181.695312 165.527344 184.582031 166.804688 185.105469 C 168.082031 185.632812 169.019531 184.867188 168.890625 183.429688 C 168.761719 181.996094 168.863281 181.160156 168.34375 179.597656 Z M 168.34375 179.597656 " fill-opacity="1" fill-rule="nonzero"/><path fill="#1d5888" d="M 167.214844 184.550781 C 167.058594 184.546875 166.882812 184.507812 166.695312 184.429688 C 165.484375 183.925781 160.015625 181.054688 158.3125 179.992188 C 156.421875 178.816406 154.824219 177.25 154.242188 176.003906 C 153.449219 174.292969 153.527344 172.300781 154.492188 169.914062 C 155.570312 167.242188 158.761719 165.507812 160.402344 165.527344 L 160.433594 165.53125 C 161.371094 165.558594 162.859375 166.492188 164.65625 170.789062 C 165.90625 173.78125 167.40625 179.566406 167.417969 179.625 L 167.425781 179.644531 L 167.429688 179.660156 C 167.785156 180.75 167.820312 181.449219 167.871094 182.335938 C 167.886719 182.65625 167.90625 182.984375 167.9375 183.359375 C 167.976562 183.796875 167.894531 184.152344 167.710938 184.355469 C 167.589844 184.488281 167.425781 184.554688 167.214844 184.550781 Z M 167.214844 184.550781 " fill-opacity="1" fill-rule="nonzero"/><path fill="#1d5888" d="M 161.835938 165.9375 C 161.835938 165.9375 159.546875 170.132812 158.839844 180.882812 C 158.367188 180.636719 157.496094 180.148438 157.496094 180.148438 C 157.496094 180.148438 157.617188 171.140625 161.203125 165.449219 C 161.519531 165.613281 161.835938 165.9375 161.835938 165.9375 Z M 161.835938 165.9375 " fill-opacity="1" fill-rule="nonzero"/><path fill="#1d5888" d="M 185.429688 236.488281 C 185.210938 234.972656 183.945312 228.296875 182.472656 222.257812 C 181.132812 216.769531 177.726562 208.457031 174.609375 204.4375 C 173.566406 204.59375 171.734375 205.1875 171.074219 207.4375 C 170.136719 210.652344 169.761719 213.84375 170.488281 219.921875 C 171.210938 226.003906 173.304688 232.515625 175.027344 235.53125 C 176.75 238.542969 179.925781 240.351562 181.535156 240.671875 C 182.699219 240.902344 184.988281 240.644531 186.359375 239.894531 C 185.726562 238.882812 185.589844 237.609375 185.429688 236.488281 Z M 185.429688 236.488281 " fill-opacity="1" fill-rule="nonzero"/><path fill="#c85937" d="M 179.6875 222.480469 C 181.03125 229.390625 180.597656 235.167969 178.722656 235.382812 C 176.84375 235.597656 174.230469 230.167969 172.886719 223.253906 C 171.542969 216.339844 171.972656 210.5625 173.851562 210.347656 C 175.730469 210.136719 178.339844 215.566406 179.6875 222.480469 Z M 179.6875 222.480469 " fill-opacity="1" fill-rule="nonzero"/><path fill="#1d5888" d="M 153.652344 199.066406 C 152.355469 197.574219 151.316406 194.8125 150.671875 192.492188 C 150.078125 190.355469 149.097656 186.757812 148.558594 184.953125 C 148.121094 185.59375 147.976562 186.742188 147.96875 188 C 148.046875 188.265625 147.980469 188.769531 147.980469 188.769531 C 147.992188 189.238281 148.019531 189.714844 148.050781 190.171875 C 148.226562 192.65625 149.050781 198.109375 149.597656 199.671875 C 150.144531 201.234375 150.957031 201.574219 151.664062 201.613281 C 152.621094 201.664062 153.667969 201.640625 154.710938 201.652344 C 155.1875 201.660156 155.515625 201.546875 155.726562 201.421875 C 154.738281 200.300781 153.976562 199.441406 153.652344 199.066406 Z M 153.652344 199.066406 " fill-opacity="1" fill-rule="nonzero"/><path fill="#d68933" d="M 224.359375 178.746094 C 224.433594 178.808594 224.511719 178.875 224.589844 178.941406 C 224.644531 178.5 224.671875 177.957031 224.574219 177.550781 C 224.375 176.742188 224.140625 176.378906 223.128906 176.128906 C 222.394531 175.945312 221.570312 175.855469 221.167969 175.816406 C 222.664062 177.171875 223.8125 178.269531 224.359375 178.746094 Z M 224.359375 178.746094 " fill-opacity="1" fill-rule="nonzero"/><path fill="#c85937" d="M 160.871094 179.625 C 160.871094 179.625 161.523438 179.949219 161.929688 180.789062 C 162.339844 181.632812 162.839844 182.851562 163.050781 183.394531 C 163.265625 183.933594 163.460938 184.195312 163.257812 184.332031 C 163.058594 184.46875 161.863281 184.433594 160.289062 184.410156 C 158.714844 184.390625 156.441406 184.359375 155.726562 184.347656 C 155.007812 184.339844 153.496094 184.128906 152.765625 183.519531 C 152.949219 181.929688 153.222656 180.632812 153.90625 180.382812 C 154.585938 180.132812 156.984375 179.644531 157.824219 179.457031 C 158.664062 179.269531 159.960938 179.125 160.871094 179.625 Z M 160.871094 179.625 " fill-opacity="1" fill-rule="nonzero"/><path fill="#1d5888" d="M 169.503906 183.859375 C 169.34375 182.421875 168.515625 180.21875 168.015625 178.816406 C 167.519531 177.414062 167.191406 176.59375 166.992188 176.628906 C 166.789062 176.667969 166.648438 176.746094 166.636719 177.78125 C 166.621094 178.816406 166.433594 183.875 166.433594 183.875 C 166.433594 183.875 164.714844 182.777344 163.808594 181.96875 C 162.902344 181.15625 161.296875 179.121094 160.375 179.390625 C 160.359375 179.394531 160.339844 179.398438 160.320312 179.40625 C 160.515625 179.460938 160.699219 179.53125 160.871094 179.625 C 160.871094 179.625 161.523438 179.949219 161.933594 180.789062 C 162.339844 181.632812 162.839844 182.851562 163.050781 183.394531 C 163.265625 183.933594 163.460938 184.195312 163.257812 184.332031 C 163.058594 184.46875 161.863281 184.433594 160.289062 184.410156 C 158.714844 184.390625 156.441406 184.359375 155.726562 184.347656 C 155.007812 184.339844 153.496094 184.128906 152.765625 183.519531 C 152.78125 183.40625 152.792969 183.289062 152.808594 183.179688 C 152.773438 183.285156 152.75 183.378906 152.75 183.453125 C 152.742188 183.832031 153.058594 184.113281 153.53125 184.417969 C 154.007812 184.726562 154.480469 185.050781 156.332031 185.113281 C 158.183594 185.179688 161.492188 185.363281 162.765625 185.382812 C 164.042969 185.398438 165.8125 185.523438 166.269531 185.667969 C 166.726562 185.8125 168.898438 187.140625 168.898438 187.140625 L 169.523438 186.648438 C 169.523438 186.648438 169.664062 185.296875 169.503906 183.859375 Z M 169.503906 183.859375 " fill-opacity="1" fill-rule="nonzero"/><g clip-path="url(#3235e06660)"><path fill="#c85937" d="M 260.121094 222.160156 C 260.121094 222.160156 260.765625 221.488281 260.953125 219.539062 C 261.136719 217.589844 261.125 215.476562 261.300781 214.402344 C 261.386719 213.882812 261.464844 213.128906 261.519531 212.492188 C 261.460938 212.472656 260.785156 212.277344 259.007812 212.9375 C 257.144531 213.628906 248.738281 216.324219 244.355469 217.699219 C 239.972656 219.074219 232.410156 221.363281 230.425781 221.933594 C 228.445312 222.503906 225.550781 224.320312 224.339844 225.5 C 217.890625 224.933594 204.359375 222 199.585938 221.15625 C 194.816406 220.3125 187.550781 218.0625 185.414062 216.957031 C 183.277344 215.851562 180.925781 213.011719 180.054688 210.964844 C 179.1875 208.921875 177.277344 204.351562 174.738281 201.867188 C 172.203125 199.378906 170.539062 198.519531 168.460938 201.78125 C 167.328125 197.160156 166.214844 195.414062 164.027344 193.648438 C 161.839844 191.886719 157.464844 188.179688 155.339844 186.355469 C 153.210938 184.535156 151.210938 181.996094 150.070312 178.09375 C 149.664062 181.675781 149.515625 183.707031 150.019531 186.105469 C 150.527344 188.503906 151.441406 191.5625 152.015625 193.246094 C 152.589844 194.929688 153.597656 197.234375 155.402344 199.289062 C 157.207031 201.347656 157.511719 202.429688 156.644531 201.578125 C 155.78125 200.730469 153.148438 197.984375 152.492188 196.421875 C 151.835938 194.859375 150.800781 191.613281 150.273438 189.613281 C 149.742188 187.613281 148.597656 183.890625 148.742188 181.941406 C 148.886719 179.992188 149.109375 178.4375 149.234375 177.84375 C 149.285156 177.621094 149.226562 177.34375 149.097656 177.089844 C 148.882812 177.367188 148.691406 177.796875 148.519531 178.476562 C 147.972656 180.683594 147.554688 182.160156 147.308594 182.8125 C 147.066406 183.46875 146.835938 184.785156 147.214844 186.320312 C 147.59375 187.851562 147.933594 188.898438 147.933594 188.898438 L 147.96875 188.003906 C 147.96875 188.003906 147.332031 185.988281 147.351562 184.671875 C 147.367188 183.359375 147.929688 182.925781 148.429688 184.527344 C 148.925781 186.128906 150.023438 190.167969 150.671875 192.492188 C 151.316406 194.8125 152.355469 197.574219 153.652344 199.066406 C 154.945312 200.558594 163.269531 209.878906 165.230469 212.257812 C 167.191406 214.636719 169.878906 219.257812 170.417969 220.539062 C 170.542969 220.0625 170.121094 218.863281 169.75 217.0625 C 169.375 215.265625 168.492188 209.871094 168.722656 207.5625 C 168.953125 205.253906 170.339844 199.972656 173.679688 203.367188 C 174.390625 204.085938 175.128906 205.078125 175.863281 206.253906 C 178.101562 209.59375 181.078125 215.664062 182.273438 219.1875 C 183.539062 222.910156 185.804688 232.109375 186.328125 234.867188 C 186.847656 237.625 186.824219 239.378906 189.628906 241.210938 C 191.652344 242.53125 194.109375 243.667969 196.277344 244.527344 C 196.9375 244.632812 197.636719 244.726562 198.390625 244.796875 C 205.277344 245.449219 218.953125 245.035156 226.585938 243.503906 C 234.21875 241.976562 247.480469 236.894531 250.65625 234.945312 C 253.832031 232.996094 259.234375 228.484375 259.984375 226.261719 C 260.730469 224.039062 260.121094 222.160156 260.121094 222.160156 Z M 260.121094 222.160156 " fill-opacity="1" fill-rule="nonzero"/></g><g clip-path="url(#0b7aae975d)"><path fill="#d68933" d="M 259.382812 200.105469 C 259.382812 200.105469 257.226562 191.507812 240.59375 186.5 C 240.386719 186.40625 240.167969 186.3125 239.945312 186.21875 C 240.070312 186.292969 240.195312 186.359375 240.316406 186.414062 C 242.378906 187.359375 247.632812 190.78125 250.296875 194.042969 C 252.964844 197.308594 254.6875 199.605469 255.421875 201.289062 C 256.15625 202.972656 257.464844 203.46875 258.011719 204.113281 C 258.5625 204.757812 258.980469 206.238281 259.203125 207.359375 C 259.429688 208.476562 260.171875 209.40625 260.15625 210.558594 C 260.140625 211.714844 259.558594 213.660156 260.429688 214.113281 C 260.636719 214.21875 260.949219 214.304688 261.3125 214.324219 C 261.480469 213.230469 261.621094 211.257812 261.621094 211.257812 C 261.621094 211.257812 262.464844 208 261.667969 205 C 260.871094 202 259.382812 200.105469 259.382812 200.105469 Z M 259.382812 200.105469 " fill-opacity="1" fill-rule="nonzero"/></g><path fill="#c85937" d="M 167.230469 195.484375 C 167.121094 195.757812 167.316406 196.582031 167.585938 197.363281 C 167.855469 198.144531 168.410156 199.648438 168.636719 199.113281 C 168.863281 198.578125 169.15625 197.503906 169.023438 197.222656 C 168.886719 196.945312 167.375 195.128906 167.230469 195.484375 Z M 167.230469 195.484375 " fill-opacity="1" fill-rule="nonzero"/><path fill="#c85937" d="M 215.261719 185.316406 C 220.738281 184.765625 227.089844 183.921875 228.570312 182.570312 C 226.585938 181.257812 223.929688 178.859375 222.390625 177.460938 C 220.855469 176.066406 215.957031 171.515625 212.992188 169.710938 C 210.027344 167.90625 207.332031 165.957031 201.199219 164.289062 C 199.824219 163.917969 198.277344 163.601562 196.699219 163.339844 C 194.90625 163.121094 192.855469 162.949219 190.457031 162.820312 C 178.984375 162.1875 163.625 162.511719 160.300781 163.855469 C 161.027344 163.703125 161.859375 163.660156 162.640625 163.914062 C 164.632812 164.570312 166.34375 166.417969 167.445312 168.914062 C 168.546875 171.410156 170.390625 176.394531 171.164062 178.886719 C 171.9375 181.378906 172.65625 183.453125 173.328125 184.628906 C 174 185.800781 174.824219 186.890625 175.746094 186.992188 C 176.671875 187.09375 183.515625 187.425781 189.855469 187.152344 C 196.195312 186.882812 209.78125 185.871094 215.261719 185.316406 Z M 215.261719 185.316406 " fill-opacity="1" fill-rule="nonzero"/><path fill="#1d5888" d="M 171.246094 166.214844 C 170.140625 166.289062 168.347656 166.085938 169.136719 167.53125 C 169.925781 168.976562 172.339844 173.734375 173.703125 176.949219 C 175.0625 180.167969 176.277344 183.171875 177.34375 183.933594 C 178.410156 184.695312 179.265625 185.484375 182.222656 185.554688 C 185.183594 185.625 207.257812 184.550781 211.839844 184.015625 C 216.421875 183.480469 222.046875 182.957031 223.21875 182.585938 C 224.390625 182.210938 224.675781 180.960938 223.972656 179.90625 C 223.269531 178.851562 219.429688 175.359375 217.835938 173.960938 C 216.242188 172.566406 211.496094 169.003906 208.605469 167.609375 C 205.714844 166.214844 204.566406 165.679688 202.375 165.691406 C 200.179688 165.699219 188.78125 165.664062 185.273438 165.738281 C 181.765625 165.808594 171.246094 166.214844 171.246094 166.214844 Z M 171.246094 166.214844 " fill-opacity="1" fill-rule="nonzero"/><path fill="#1d5888" d="M 189.746094 210.558594 C 191.972656 213.386719 193.382812 215.691406 197.257812 216.519531 C 201.132812 217.351562 204.589844 218.117188 207.21875 218.449219 C 209.84375 218.785156 212.113281 218.933594 214.753906 218.195312 C 217.394531 217.453125 220.101562 216.351562 219.214844 215.503906 C 209.859375 208.804688 189.894531 199.5625 188.347656 199.242188 C 186.796875 198.921875 185.476562 199.261719 185.273438 200.992188 C 185.070312 202.722656 188.746094 209.289062 189.746094 210.558594 Z M 189.746094 210.558594 " fill-opacity="1" fill-rule="nonzero"/><path fill="#8c52ff" d="M 260.121094 222.160156 C 260.121094 222.160156 260.324219 221.945312 260.535156 221.414062 C 260.378906 221.730469 260.230469 222 260.121094 222.160156 Z M 260.121094 222.160156 " fill-opacity="1" fill-rule="nonzero"/><path fill="#c85937" d="M 150.371094 193.382812 C 150.808594 196.964844 150.785156 199.847656 150.316406 199.820312 C 149.847656 199.792969 149.113281 196.867188 148.675781 193.289062 C 148.238281 189.707031 148.261719 186.824219 148.730469 186.851562 C 149.199219 186.878906 149.933594 189.804688 150.371094 193.382812 Z M 150.371094 193.382812 " fill-opacity="1" fill-rule="nonzero"/><path fill="#1d5888" d="M 249.730469 190.269531 C 251.128906 193.085938 255.566406 201.226562 261.175781 203.472656 C 260.375 201.371094 259.382812 200.105469 259.382812 200.105469 C 259.382812 200.105469 258.082031 194.929688 249.730469 190.269531 Z M 249.730469 190.269531 " fill-opacity="1" fill-rule="nonzero"/><path fill="#1d5888" d="M 253.003906 220.171875 C 246.472656 223.238281 239.578125 225.453125 232.480469 226.757812 L 230.695312 227.085938 C 221.136719 228.84375 211.34375 228.925781 201.757812 227.332031 L 194.761719 226.171875 C 193.371094 225.9375 192.097656 226.984375 192.050781 228.394531 C 192.015625 229.558594 192.851562 230.574219 194 230.761719 L 201.625 232.015625 C 211.4375 233.625 221.460938 233.480469 231.222656 231.582031 C 239.53125 229.972656 247.546875 227.109375 255 223.101562 L 260.90625 219.921875 C 260.921875 219.800781 260.9375 219.671875 260.953125 219.539062 C 261.054688 218.457031 261.097656 217.324219 261.144531 216.34375 Z M 253.003906 220.171875 " fill-opacity="1" fill-rule="nonzero"/><path fill="#1d5888" d="M 230.324219 234.253906 L 228.621094 234.566406 C 219.519531 236.242188 210.195312 236.320312 201.0625 234.804688 L 194.398438 233.695312 C 193.078125 233.476562 191.863281 234.472656 191.820312 235.8125 C 191.785156 236.925781 192.582031 237.890625 193.679688 238.070312 L 200.9375 239.261719 C 210.285156 240.796875 219.828125 240.65625 229.125 238.851562 C 237.039062 237.316406 244.675781 234.589844 251.773438 230.773438 L 259.9375 226.378906 C 259.953125 226.339844 259.972656 226.300781 259.984375 226.261719 C 260.410156 224.996094 260.394531 223.839844 260.300781 223.082031 L 249.871094 227.980469 C 243.652344 230.902344 237.082031 233.011719 230.324219 234.253906 Z M 230.324219 234.253906 " fill-opacity="1" fill-rule="nonzero"/><g fill="#1d5888" fill-opacity="0.4"><g transform="translate(40.352204, 149.58347)"><g><path d="M 0.734375 0 L 7.6875 -32.84375 L 16.46875 -32.84375 L 13.953125 -20.671875 L 21.765625 -20.671875 L 24.28125 -32.84375 L 33.078125 -32.84375 L 26.125 0 L 17.34375 0 L 20.140625 -13.390625 L 12.375 -13.390625 L 9.53125 0 Z M 0.734375 0 "/></g></g></g><g fill="#1d5888" fill-opacity="0.4"><g transform="translate(75.76332, 149.58347)"><g><path d="M 13.703125 0.453125 C 11.421875 0.453125 9.460938 0.046875 7.828125 -0.765625 C 6.203125 -1.585938 4.957031 -2.71875 4.09375 -4.15625 C 3.238281 -5.59375 2.8125 -7.222656 2.8125 -9.046875 C 2.8125 -9.515625 2.832031 -10.019531 2.875 -10.5625 C 2.914062 -11.113281 2.984375 -11.628906 3.078125 -12.109375 L 7.546875 -32.84375 L 16.328125 -32.84375 L 11.953125 -12.328125 C 11.859375 -11.898438 11.78125 -11.457031 11.71875 -11 C 11.664062 -10.550781 11.640625 -10.132812 11.640625 -9.75 C 11.640625 -8.851562 11.882812 -8.148438 12.375 -7.640625 C 12.875 -7.140625 13.59375 -6.890625 14.53125 -6.890625 C 15.414062 -6.890625 16.164062 -7.082031 16.78125 -7.46875 C 17.40625 -7.863281 17.9375 -8.488281 18.375 -9.34375 C 18.820312 -10.207031 19.195312 -11.351562 19.5 -12.78125 L 23.78125 -32.84375 L 32.5625 -32.84375 L 28.09375 -11.90625 C 27.539062 -9.238281 26.695312 -6.988281 25.5625 -5.15625 C 24.425781 -3.320312 22.898438 -1.925781 20.984375 -0.96875 C 19.066406 -0.0195312 16.640625 0.453125 13.703125 0.453125 Z M 13.703125 0.453125 "/></g></g></g><g fill="#1d5888" fill-opacity="0.4"><g transform="translate(110.590502, 149.58347)"><g><path d="M 0.734375 0 L 7.6875 -32.84375 L 17.90625 -32.84375 L 24.328125 -10.765625 L 24.53125 -10.765625 C 24.601562 -11.421875 24.707031 -12.253906 24.84375 -13.265625 C 24.988281 -14.285156 25.144531 -15.320312 25.3125 -16.375 C 25.488281 -17.425781 25.65625 -18.332031 25.8125 -19.09375 L 28.75 -32.84375 L 36.5625 -32.84375 L 29.625 0 L 19.40625 0 L 12.921875 -23.09375 L 12.734375 -23.09375 C 12.722656 -22.789062 12.675781 -22.273438 12.59375 -21.546875 C 12.519531 -20.828125 12.421875 -20 12.296875 -19.0625 C 12.179688 -18.132812 12.050781 -17.195312 11.90625 -16.25 C 11.769531 -15.300781 11.617188 -14.453125 11.453125 -13.703125 L 8.5625 0 Z M 0.734375 0 "/></g></g></g><g fill="#1d5888" fill-opacity="0.4"><g transform="translate(149.505223, 149.58347)"><g><path d="M 0.734375 0 L 7.6875 -32.84375 L 17.03125 -32.84375 C 21.050781 -32.84375 24.222656 -31.785156 26.546875 -29.671875 C 28.867188 -27.554688 30.03125 -24.472656 30.03125 -20.421875 C 30.03125 -17.867188 29.753906 -15.53125 29.203125 -13.40625 C 28.660156 -11.28125 27.863281 -9.382812 26.8125 -7.71875 C 25.769531 -6.0625 24.488281 -4.660156 22.96875 -3.515625 C 21.445312 -2.367188 19.710938 -1.492188 17.765625 -0.890625 C 15.816406 -0.296875 13.671875 0 11.328125 0 Z M 11.09375 -7.28125 L 12.640625 -7.28125 C 13.648438 -7.28125 14.59375 -7.472656 15.46875 -7.859375 C 16.34375 -8.253906 17.128906 -8.820312 17.828125 -9.5625 C 18.523438 -10.300781 19.125 -11.191406 19.625 -12.234375 C 20.125 -13.273438 20.503906 -14.445312 20.765625 -15.75 C 21.023438 -17.050781 21.15625 -18.457031 21.15625 -19.96875 C 21.15625 -21.84375 20.75 -23.257812 19.9375 -24.21875 C 19.132812 -25.1875 18.003906 -25.671875 16.546875 -25.671875 L 14.953125 -25.671875 Z M 11.09375 -7.28125 "/></g></g></g><g fill="#1d5888" fill-opacity="0.4"><g transform="translate(183.546347, 149.58347)"><g><path d="M -2.71875 0 L 14 -32.84375 L 25.296875 -32.84375 L 28.046875 0 L 19.5 0 L 19.265625 -6.15625 L 9.203125 -6.15625 L 6.40625 0 Z M 12.421875 -13.15625 L 19 -13.15625 L 18.671875 -22.59375 C 18.648438 -23.332031 18.628906 -24.0625 18.609375 -24.78125 C 18.597656 -25.5 18.601562 -26.175781 18.625 -26.8125 L 18.484375 -26.8125 C 18.265625 -26.125 18.019531 -25.453125 17.75 -24.796875 C 17.488281 -24.140625 17.203125 -23.46875 16.890625 -22.78125 Z M 12.421875 -13.15625 "/></g></g></g><g fill="#1d5888" fill-opacity="0.4"><g transform="translate(217.205662, 149.58347)"><g><path d="M 9.4375 0.453125 C 7.800781 0.453125 6.242188 0.265625 4.765625 -0.109375 C 3.296875 -0.484375 2.03125 -1.015625 0.96875 -1.703125 L 0.96875 -9.5625 C 2.164062 -8.832031 3.578125 -8.179688 5.203125 -7.609375 C 6.828125 -7.046875 8.328125 -6.765625 9.703125 -6.765625 C 10.253906 -6.765625 10.738281 -6.820312 11.15625 -6.9375 C 11.582031 -7.0625 11.9375 -7.234375 12.21875 -7.453125 C 12.5 -7.679688 12.710938 -7.960938 12.859375 -8.296875 C 13.003906 -8.640625 13.078125 -9.019531 13.078125 -9.4375 C 13.078125 -9.988281 12.910156 -10.503906 12.578125 -10.984375 C 12.242188 -11.460938 11.796875 -11.9375 11.234375 -12.40625 C 10.679688 -12.882812 10.066406 -13.398438 9.390625 -13.953125 C 8.390625 -14.773438 7.507812 -15.632812 6.75 -16.53125 C 5.988281 -17.425781 5.398438 -18.410156 4.984375 -19.484375 C 4.578125 -20.554688 4.375 -21.757812 4.375 -23.09375 C 4.375 -24.570312 4.648438 -25.929688 5.203125 -27.171875 C 5.765625 -28.421875 6.554688 -29.503906 7.578125 -30.421875 C 8.609375 -31.347656 9.835938 -32.0625 11.265625 -32.5625 C 12.691406 -33.0625 14.273438 -33.3125 16.015625 -33.3125 C 17.785156 -33.3125 19.492188 -33.097656 21.140625 -32.671875 C 22.796875 -32.253906 24.304688 -31.664062 25.671875 -30.90625 L 22.640625 -24.234375 C 21.585938 -24.753906 20.488281 -25.210938 19.34375 -25.609375 C 18.195312 -26.015625 17.117188 -26.21875 16.109375 -26.21875 C 15.472656 -26.21875 14.960938 -26.132812 14.578125 -25.96875 C 14.191406 -25.8125 13.890625 -25.609375 13.671875 -25.359375 C 13.460938 -25.117188 13.316406 -24.851562 13.234375 -24.5625 C 13.160156 -24.28125 13.125 -24.003906 13.125 -23.734375 C 13.125 -23.273438 13.222656 -22.832031 13.421875 -22.40625 C 13.617188 -21.976562 13.976562 -21.503906 14.5 -20.984375 C 15.03125 -20.472656 15.773438 -19.859375 16.734375 -19.140625 C 17.941406 -18.242188 18.929688 -17.328125 19.703125 -16.390625 C 20.472656 -15.460938 21.035156 -14.484375 21.390625 -13.453125 C 21.753906 -12.429688 21.9375 -11.304688 21.9375 -10.078125 C 21.9375 -8.453125 21.660156 -6.988281 21.109375 -5.6875 C 20.554688 -4.382812 19.75 -3.273438 18.6875 -2.359375 C 17.625 -1.441406 16.316406 -0.742188 14.765625 -0.265625 C 13.210938 0.210938 11.4375 0.453125 9.4375 0.453125 Z M 9.4375 0.453125 "/></g></g></g><g fill="#1d5888" fill-opacity="0.4"><g transform="translate(244.980699, 149.58347)"><g><path d="M 0.734375 0 L 7.6875 -32.84375 L 16.46875 -32.84375 L 13.953125 -20.671875 L 21.765625 -20.671875 L 24.28125 -32.84375 L 33.078125 -32.84375 L 26.125 0 L 17.34375 0 L 20.140625 -13.390625 L 12.375 -13.390625 L 9.53125 0 Z M 0.734375 0 "/></g></g></g><g fill="#1d5888" fill-opacity="0.4"><g transform="translate(280.391807, 149.58347)"><g><path d="M 0.734375 0 L 7.6875 -32.84375 L 27.171875 -32.84375 L 25.71875 -25.71875 L 15 -25.71875 L 13.953125 -20.546875 L 23.921875 -20.546875 L 22.296875 -13.4375 L 12.328125 -13.4375 L 11.046875 -7.234375 L 21.765625 -7.234375 L 20.234375 0 Z M 0.734375 0 "/></g></g></g><g fill="#1d5888" fill-opacity="0.4"><g transform="translate(308.818174, 149.58347)"><g><path d="M 0.734375 0 L 7.6875 -32.84375 L 16.375 -32.84375 C 20.144531 -32.84375 23.03125 -32.09375 25.03125 -30.59375 C 27.039062 -29.09375 28.046875 -26.835938 28.046875 -23.828125 C 28.046875 -21.828125 27.71875 -20.15625 27.0625 -18.8125 C 26.40625 -17.46875 25.585938 -16.390625 24.609375 -15.578125 C 23.640625 -14.773438 22.675781 -14.164062 21.71875 -13.75 L 27.65625 0 L 18.078125 0 L 13.703125 -11.953125 L 12.0625 -11.953125 L 9.53125 0 Z M 13.484375 -18.625 L 14.625 -18.625 C 15.207031 -18.625 15.773438 -18.707031 16.328125 -18.875 C 16.878906 -19.050781 17.375 -19.320312 17.8125 -19.6875 C 18.257812 -20.050781 18.613281 -20.53125 18.875 -21.125 C 19.132812 -21.71875 19.265625 -22.429688 19.265625 -23.265625 C 19.265625 -24.054688 19.039062 -24.726562 18.59375 -25.28125 C 18.144531 -25.84375 17.359375 -26.125 16.234375 -26.125 L 15.046875 -26.125 Z M 13.484375 -18.625 "/></g></g></g><g fill="#ff993b" fill-opacity="1"><g transform="translate(38.31926, 147.550522)"><g><path d="M 0.734375 0 L 7.6875 -32.84375 L 16.46875 -32.84375 L 13.953125 -20.671875 L 21.765625 -20.671875 L 24.28125 -32.84375 L 33.078125 -32.84375 L 26.125 0 L 17.34375 0 L 20.140625 -13.390625 L 12.375 -13.390625 L 9.53125 0 Z M 0.734375 0 "/></g></g></g><g fill="#ff993b" fill-opacity="1"><g transform="translate(73.730376, 147.550522)"><g><path d="M 13.703125 0.453125 C 11.421875 0.453125 9.460938 0.046875 7.828125 -0.765625 C 6.203125 -1.585938 4.957031 -2.71875 4.09375 -4.15625 C 3.238281 -5.59375 2.8125 -7.222656 2.8125 -9.046875 C 2.8125 -9.515625 2.832031 -10.019531 2.875 -10.5625 C 2.914062 -11.113281 2.984375 -11.628906 3.078125 -12.109375 L 7.546875 -32.84375 L 16.328125 -32.84375 L 11.953125 -12.328125 C 11.859375 -11.898438 11.78125 -11.457031 11.71875 -11 C 11.664062 -10.550781 11.640625 -10.132812 11.640625 -9.75 C 11.640625 -8.851562 11.882812 -8.148438 12.375 -7.640625 C 12.875 -7.140625 13.59375 -6.890625 14.53125 -6.890625 C 15.414062 -6.890625 16.164062 -7.082031 16.78125 -7.46875 C 17.40625 -7.863281 17.9375 -8.488281 18.375 -9.34375 C 18.820312 -10.207031 19.195312 -11.351562 19.5 -12.78125 L 23.78125 -32.84375 L 32.5625 -32.84375 L 28.09375 -11.90625 C 27.539062 -9.238281 26.695312 -6.988281 25.5625 -5.15625 C 24.425781 -3.320312 22.898438 -1.925781 20.984375 -0.96875 C 19.066406 -0.0195312 16.640625 0.453125 13.703125 0.453125 Z M 13.703125 0.453125 "/></g></g></g><g fill="#ff993b" fill-opacity="1"><g transform="translate(108.557558, 147.550522)"><g><path d="M 0.734375 0 L 7.6875 -32.84375 L 17.90625 -32.84375 L 24.328125 -10.765625 L 24.53125 -10.765625 C 24.601562 -11.421875 24.707031 -12.253906 24.84375 -13.265625 C 24.988281 -14.285156 25.144531 -15.320312 25.3125 -16.375 C 25.488281 -17.425781 25.65625 -18.332031 25.8125 -19.09375 L 28.75 -32.84375 L 36.5625 -32.84375 L 29.625 0 L 19.40625 0 L 12.921875 -23.09375 L 12.734375 -23.09375 C 12.722656 -22.789062 12.675781 -22.273438 12.59375 -21.546875 C 12.519531 -20.828125 12.421875 -20 12.296875 -19.0625 C 12.179688 -18.132812 12.050781 -17.195312 11.90625 -16.25 C 11.769531 -15.300781 11.617188 -14.453125 11.453125 -13.703125 L 8.5625 0 Z M 0.734375 0 "/></g></g></g><g fill="#ff993b" fill-opacity="1"><g transform="translate(147.472279, 147.550522)"><g><path d="M 0.734375 0 L 7.6875 -32.84375 L 17.03125 -32.84375 C 21.050781 -32.84375 24.222656 -31.785156 26.546875 -29.671875 C 28.867188 -27.554688 30.03125 -24.472656 30.03125 -20.421875 C 30.03125 -17.867188 29.753906 -15.53125 29.203125 -13.40625 C 28.660156 -11.28125 27.863281 -9.382812 26.8125 -7.71875 C 25.769531 -6.0625 24.488281 -4.660156 22.96875 -3.515625 C 21.445312 -2.367188 19.710938 -1.492188 17.765625 -0.890625 C 15.816406 -0.296875 13.671875 0 11.328125 0 Z M 11.09375 -7.28125 L 12.640625 -7.28125 C 13.648438 -7.28125 14.59375 -7.472656 15.46875 -7.859375 C 16.34375 -8.253906 17.128906 -8.820312 17.828125 -9.5625 C 18.523438 -10.300781 19.125 -11.191406 19.625 -12.234375 C 20.125 -13.273438 20.503906 -14.445312 20.765625 -15.75 C 21.023438 -17.050781 21.15625 -18.457031 21.15625 -19.96875 C 21.15625 -21.84375 20.75 -23.257812 19.9375 -24.21875 C 19.132812 -25.1875 18.003906 -25.671875 16.546875 -25.671875 L 14.953125 -25.671875 Z M 11.09375 -7.28125 "/></g></g></g><g fill="#ff993b" fill-opacity="1"><g transform="translate(181.513403, 147.550522)"><g><path d="M -2.71875 0 L 14 -32.84375 L 25.296875 -32.84375 L 28.046875 0 L 19.5 0 L 19.265625 -6.15625 L 9.203125 -6.15625 L 6.40625 0 Z M 12.421875 -13.15625 L 19 -13.15625 L 18.671875 -22.59375 C 18.648438 -23.332031 18.628906 -24.0625 18.609375 -24.78125 C 18.597656 -25.5 18.601562 -26.175781 18.625 -26.8125 L 18.484375 -26.8125 C 18.265625 -26.125 18.019531 -25.453125 17.75 -24.796875 C 17.488281 -24.140625 17.203125 -23.46875 16.890625 -22.78125 Z M 12.421875 -13.15625 "/></g></g></g><g fill="#ff993b" fill-opacity="1"><g transform="translate(215.172718, 147.550522)"><g><path d="M 9.4375 0.453125 C 7.800781 0.453125 6.242188 0.265625 4.765625 -0.109375 C 3.296875 -0.484375 2.03125 -1.015625 0.96875 -1.703125 L 0.96875 -9.5625 C 2.164062 -8.832031 3.578125 -8.179688 5.203125 -7.609375 C 6.828125 -7.046875 8.328125 -6.765625 9.703125 -6.765625 C 10.253906 -6.765625 10.738281 -6.820312 11.15625 -6.9375 C 11.582031 -7.0625 11.9375 -7.234375 12.21875 -7.453125 C 12.5 -7.679688 12.710938 -7.960938 12.859375 -8.296875 C 13.003906 -8.640625 13.078125 -9.019531 13.078125 -9.4375 C 13.078125 -9.988281 12.910156 -10.503906 12.578125 -10.984375 C 12.242188 -11.460938 11.796875 -11.9375 11.234375 -12.40625 C 10.679688 -12.882812 10.066406 -13.398438 9.390625 -13.953125 C 8.390625 -14.773438 7.507812 -15.632812 6.75 -16.53125 C 5.988281 -17.425781 5.398438 -18.410156 4.984375 -19.484375 C 4.578125 -20.554688 4.375 -21.757812 4.375 -23.09375 C 4.375 -24.570312 4.648438 -25.929688 5.203125 -27.171875 C 5.765625 -28.421875 6.554688 -29.503906 7.578125 -30.421875 C 8.609375 -31.347656 9.835938 -32.0625 11.265625 -32.5625 C 12.691406 -33.0625 14.273438 -33.3125 16.015625 -33.3125 C 17.785156 -33.3125 19.492188 -33.097656 21.140625 -32.671875 C 22.796875 -32.253906 24.304688 -31.664062 25.671875 -30.90625 L 22.640625 -24.234375 C 21.585938 -24.753906 20.488281 -25.210938 19.34375 -25.609375 C 18.195312 -26.015625 17.117188 -26.21875 16.109375 -26.21875 C 15.472656 -26.21875 14.960938 -26.132812 14.578125 -25.96875 C 14.191406 -25.8125 13.890625 -25.609375 13.671875 -25.359375 C 13.460938 -25.117188 13.316406 -24.851562 13.234375 -24.5625 C 13.160156 -24.28125 13.125 -24.003906 13.125 -23.734375 C 13.125 -23.273438 13.222656 -22.832031 13.421875 -22.40625 C 13.617188 -21.976562 13.976562 -21.503906 14.5 -20.984375 C 15.03125 -20.472656 15.773438 -19.859375 16.734375 -19.140625 C 17.941406 -18.242188 18.929688 -17.328125 19.703125 -16.390625 C 20.472656 -15.460938 21.035156 -14.484375 21.390625 -13.453125 C 21.753906 -12.429688 21.9375 -11.304688 21.9375 -10.078125 C 21.9375 -8.453125 21.660156 -6.988281 21.109375 -5.6875 C 20.554688 -4.382812 19.75 -3.273438 18.6875 -2.359375 C 17.625 -1.441406 16.316406 -0.742188 14.765625 -0.265625 C 13.210938 0.210938 11.4375 0.453125 9.4375 0.453125 Z M 9.4375 0.453125 "/></g></g></g><g fill="#ff993b" fill-opacity="1"><g transform="translate(242.947755, 147.550522)"><g><path d="M 0.734375 0 L 7.6875 -32.84375 L 16.46875 -32.84375 L 13.953125 -20.671875 L 21.765625 -20.671875 L 24.28125 -32.84375 L 33.078125 -32.84375 L 26.125 0 L 17.34375 0 L 20.140625 -13.390625 L 12.375 -13.390625 L 9.53125 0 Z M 0.734375 0 "/></g></g></g><g fill="#ff993b" fill-opacity="1"><g transform="translate(278.358863, 147.550522)"><g><path d="M 0.734375 0 L 7.6875 -32.84375 L 27.171875 -32.84375 L 25.71875 -25.71875 L 15 -25.71875 L 13.953125 -20.546875 L 23.921875 -20.546875 L 22.296875 -13.4375 L 12.328125 -13.4375 L 11.046875 -7.234375 L 21.765625 -7.234375 L 20.234375 0 Z M 0.734375 0 "/></g></g></g><g fill="#ff993b" fill-opacity="1"><g transform="translate(306.78523, 147.550522)"><g><path d="M 0.734375 0 L 7.6875 -32.84375 L 16.375 -32.84375 C 20.144531 -32.84375 23.03125 -32.09375 25.03125 -30.59375 C 27.039062 -29.09375 28.046875 -26.835938 28.046875 -23.828125 C 28.046875 -21.828125 27.71875 -20.15625 27.0625 -18.8125 C 26.40625 -17.46875 25.585938 -16.390625 24.609375 -15.578125 C 23.640625 -14.773438 22.675781 -14.164062 21.71875 -13.75 L 27.65625 0 L 18.078125 0 L 13.703125 -11.953125 L 12.0625 -11.953125 L 9.53125 0 Z M 13.484375 -18.625 L 14.625 -18.625 C 15.207031 -18.625 15.773438 -18.707031 16.328125 -18.875 C 16.878906 -19.050781 17.375 -19.320312 17.8125 -19.6875 C 18.257812 -20.050781 18.613281 -20.53125 18.875 -21.125 C 19.132812 -21.71875 19.265625 -22.429688 19.265625 -23.265625 C 19.265625 -24.054688 19.039062 -24.726562 18.59375 -25.28125 C 18.144531 -25.84375 17.359375 -26.125 16.234375 -26.125 L 15.046875 -26.125 Z M 13.484375 -18.625 "/></g></g></g><g fill="#ff993b" fill-opacity="0.502"><g transform="translate(80.880181, 273.190206)"><g><path d="M 9.9375 0 L -0.1875 0 L 0.140625 -1.53125 L 10.515625 -14.671875 L 3.15625 -14.671875 L 3.515625 -16.421875 L 13.15625 -16.421875 L 12.859375 -14.859375 L 2.484375 -1.734375 L 10.3125 -1.734375 Z M 9.9375 0 "/></g></g></g><g fill="#ff993b" fill-opacity="0.502"><g transform="translate(101.455646, 273.190206)"><g><path d="M 9.21875 0 L 0.96875 0 L 4.4375 -16.421875 L 12.6875 -16.421875 L 12.328125 -14.703125 L 5.96875 -14.703125 L 4.875 -9.4375 L 10.796875 -9.4375 L 10.46875 -7.734375 L 4.53125 -7.734375 L 3.25 -1.703125 L 9.59375 -1.703125 Z M 9.21875 0 "/></g></g></g><g fill="#ff993b" fill-opacity="0.502"><g transform="translate(121.582042, 273.190206)"><g><path d="M 4.328125 -6.828125 L 2.875 0 L 0.96875 0 L 4.4375 -16.421875 L 8.03125 -16.421875 C 11.363281 -16.421875 13.03125 -15.050781 13.03125 -12.3125 C 13.03125 -9.707031 11.65625 -8.023438 8.90625 -7.265625 L 11.59375 0 L 9.5 0 L 7.15625 -6.828125 Z M 5.96875 -14.75 C 5.207031 -11.050781 4.773438 -8.957031 4.671875 -8.46875 L 6.5625 -8.46875 C 8 -8.46875 9.109375 -8.785156 9.890625 -9.421875 C 10.671875 -10.054688 11.0625 -10.96875 11.0625 -12.15625 C 11.0625 -13.0625 10.804688 -13.71875 10.296875 -14.125 C 9.796875 -14.539062 8.976562 -14.75 7.84375 -14.75 Z M 5.96875 -14.75 "/></g></g></g><g fill="#ff993b" fill-opacity="0.502"><g transform="translate(143.033169, 273.190206)"><g><path d="M 15.84375 -10.1875 C 15.84375 -8.175781 15.515625 -6.375 14.859375 -4.78125 C 14.203125 -3.1875 13.257812 -1.953125 12.03125 -1.078125 C 10.800781 -0.210938 9.378906 0.21875 7.765625 0.21875 C 5.847656 0.21875 4.351562 -0.335938 3.28125 -1.453125 C 2.21875 -2.578125 1.6875 -4.148438 1.6875 -6.171875 C 1.6875 -8.140625 2.046875 -9.941406 2.765625 -11.578125 C 3.484375 -13.210938 4.46875 -14.46875 5.71875 -15.34375 C 6.976562 -16.226562 8.394531 -16.671875 9.96875 -16.671875 C 11.789062 -16.671875 13.222656 -16.09375 14.265625 -14.9375 C 15.316406 -13.789062 15.84375 -12.207031 15.84375 -10.1875 Z M 9.8125 -14.96875 C 8.632812 -14.96875 7.582031 -14.585938 6.65625 -13.828125 C 5.726562 -13.078125 5.007812 -12.023438 4.5 -10.671875 C 3.988281 -9.328125 3.734375 -7.835938 3.734375 -6.203125 C 3.734375 -4.710938 4.097656 -3.550781 4.828125 -2.71875 C 5.566406 -1.882812 6.5625 -1.46875 7.8125 -1.46875 C 8.957031 -1.46875 9.976562 -1.832031 10.875 -2.5625 C 11.78125 -3.289062 12.492188 -4.335938 13.015625 -5.703125 C 13.535156 -7.066406 13.796875 -8.578125 13.796875 -10.234375 C 13.796875 -11.722656 13.441406 -12.882812 12.734375 -13.71875 C 12.035156 -14.550781 11.0625 -14.96875 9.8125 -14.96875 Z M 9.8125 -14.96875 "/></g></g></g><g fill="#ff993b" fill-opacity="0.502"><g transform="translate(167.964588, 273.190206)"><g/></g></g><g fill="#ff993b" fill-opacity="0.502"><g transform="translate(182.309246, 273.190206)"><g><path d="M 5.46875 0 L 3.53125 0 L 6.65625 -14.71875 L 2.09375 -14.71875 L 2.453125 -16.421875 L 13.515625 -16.421875 L 13.1875 -14.71875 L 8.609375 -14.71875 Z M 5.46875 0 "/></g></g></g><g fill="#ff993b" fill-opacity="0.502"><g transform="translate(202.132551, 273.190206)"><g><path d="M 15.84375 -10.1875 C 15.84375 -8.175781 15.515625 -6.375 14.859375 -4.78125 C 14.203125 -3.1875 13.257812 -1.953125 12.03125 -1.078125 C 10.800781 -0.210938 9.378906 0.21875 7.765625 0.21875 C 5.847656 0.21875 4.351562 -0.335938 3.28125 -1.453125 C 2.21875 -2.578125 1.6875 -4.148438 1.6875 -6.171875 C 1.6875 -8.140625 2.046875 -9.941406 2.765625 -11.578125 C 3.484375 -13.210938 4.46875 -14.46875 5.71875 -15.34375 C 6.976562 -16.226562 8.394531 -16.671875 9.96875 -16.671875 C 11.789062 -16.671875 13.222656 -16.09375 14.265625 -14.9375 C 15.316406 -13.789062 15.84375 -12.207031 15.84375 -10.1875 Z M 9.8125 -14.96875 C 8.632812 -14.96875 7.582031 -14.585938 6.65625 -13.828125 C 5.726562 -13.078125 5.007812 -12.023438 4.5 -10.671875 C 3.988281 -9.328125 3.734375 -7.835938 3.734375 -6.203125 C 3.734375 -4.710938 4.097656 -3.550781 4.828125 -2.71875 C 5.566406 -1.882812 6.5625 -1.46875 7.8125 -1.46875 C 8.957031 -1.46875 9.976562 -1.832031 10.875 -2.5625 C 11.78125 -3.289062 12.492188 -4.335938 13.015625 -5.703125 C 13.535156 -7.066406 13.796875 -8.578125 13.796875 -10.234375 C 13.796875 -11.722656 13.441406 -12.882812 12.734375 -13.71875 C 12.035156 -14.550781 11.0625 -14.96875 9.8125 -14.96875 Z M 9.8125 -14.96875 "/></g></g></g><g fill="#ff993b" fill-opacity="0.502"><g transform="translate(227.063924, 273.190206)"><g/></g></g><g fill="#ff993b" fill-opacity="0.502"><g transform="translate(241.408611, 273.190206)"><g><path d="M 6.609375 0 L 4.671875 0 L 6.875 -10.25 C 7.3125 -12.207031 7.640625 -13.550781 7.859375 -14.28125 C 7.484375 -13.882812 6.960938 -13.46875 6.296875 -13.03125 L 4.296875 -11.796875 L 3.40625 -13.234375 L 8.453125 -16.421875 L 10.125 -16.421875 Z M 6.609375 0 "/></g></g></g><g fill="#ff993b" fill-opacity="0.502"><g transform="translate(262.444381, 273.190206)"><g><path d="M 12.265625 -11.390625 C 12.265625 -9.179688 11.96875 -7.160156 11.375 -5.328125 C 10.789062 -3.503906 9.988281 -2.125 8.96875 -1.1875 C 7.957031 -0.25 6.785156 0.21875 5.453125 0.21875 C 4.128906 0.21875 3.113281 -0.253906 2.40625 -1.203125 C 1.707031 -2.160156 1.359375 -3.546875 1.359375 -5.359375 C 1.359375 -7.378906 1.664062 -9.300781 2.28125 -11.125 C 2.894531 -12.957031 3.703125 -14.335938 4.703125 -15.265625 C 5.710938 -16.203125 6.867188 -16.671875 8.171875 -16.671875 C 10.898438 -16.671875 12.265625 -14.910156 12.265625 -11.390625 Z M 8.046875 -15.0625 C 7.203125 -15.0625 6.421875 -14.628906 5.703125 -13.765625 C 4.984375 -12.898438 4.398438 -11.691406 3.953125 -10.140625 C 3.515625 -8.585938 3.296875 -7 3.296875 -5.375 C 3.296875 -4.09375 3.476562 -3.101562 3.84375 -2.40625 C 4.21875 -1.71875 4.820312 -1.375 5.65625 -1.375 C 6.519531 -1.375 7.300781 -1.800781 8 -2.65625 C 8.707031 -3.507812 9.269531 -4.738281 9.6875 -6.34375 C 10.113281 -7.945312 10.328125 -9.644531 10.328125 -11.4375 C 10.328125 -13.851562 9.566406 -15.0625 8.046875 -15.0625 Z M 8.046875 -15.0625 "/></g></g></g><g fill="#ff993b" fill-opacity="0.502"><g transform="translate(283.480123, 273.190206)"><g><path d="M 12.265625 -11.390625 C 12.265625 -9.179688 11.96875 -7.160156 11.375 -5.328125 C 10.789062 -3.503906 9.988281 -2.125 8.96875 -1.1875 C 7.957031 -0.25 6.785156 0.21875 5.453125 0.21875 C 4.128906 0.21875 3.113281 -0.253906 2.40625 -1.203125 C 1.707031 -2.160156 1.359375 -3.546875 1.359375 -5.359375 C 1.359375 -7.378906 1.664062 -9.300781 2.28125 -11.125 C 2.894531 -12.957031 3.703125 -14.335938 4.703125 -15.265625 C 5.710938 -16.203125 6.867188 -16.671875 8.171875 -16.671875 C 10.898438 -16.671875 12.265625 -14.910156 12.265625 -11.390625 Z M 8.046875 -15.0625 C 7.203125 -15.0625 6.421875 -14.628906 5.703125 -13.765625 C 4.984375 -12.898438 4.398438 -11.691406 3.953125 -10.140625 C 3.515625 -8.585938 3.296875 -7 3.296875 -5.375 C 3.296875 -4.09375 3.476562 -3.101562 3.84375 -2.40625 C 4.21875 -1.71875 4.820312 -1.375 5.65625 -1.375 C 6.519531 -1.375 7.300781 -1.800781 8 -2.65625 C 8.707031 -3.507812 9.269531 -4.738281 9.6875 -6.34375 C 10.113281 -7.945312 10.328125 -9.644531 10.328125 -11.4375 C 10.328125 -13.851562 9.566406 -15.0625 8.046875 -15.0625 Z M 8.046875 -15.0625 "/></g></g></g><g fill="#ff993b" fill-opacity="0.302"><g transform="translate(81.896653, 274.206661)"><g><path d="M 9.9375 0 L -0.1875 0 L 0.140625 -1.53125 L 10.515625 -14.671875 L 3.15625 -14.671875 L 3.515625 -16.421875 L 13.15625 -16.421875 L 12.859375 -14.859375 L 2.484375 -1.734375 L 10.3125 -1.734375 Z M 9.9375 0 "/></g></g></g><g fill="#ff993b" fill-opacity="0.302"><g transform="translate(102.472109, 274.206661)"><g><path d="M 9.21875 0 L 0.96875 0 L 4.4375 -16.421875 L 12.6875 -16.421875 L 12.328125 -14.703125 L 5.96875 -14.703125 L 4.875 -9.4375 L 10.796875 -9.4375 L 10.46875 -7.734375 L 4.53125 -7.734375 L 3.25 -1.703125 L 9.59375 -1.703125 Z M 9.21875 0 "/></g></g></g><g fill="#ff993b" fill-opacity="0.302"><g transform="translate(122.598512, 274.206661)"><g><path d="M 4.328125 -6.828125 L 2.875 0 L 0.96875 0 L 4.4375 -16.421875 L 8.03125 -16.421875 C 11.363281 -16.421875 13.03125 -15.050781 13.03125 -12.3125 C 13.03125 -9.707031 11.65625 -8.023438 8.90625 -7.265625 L 11.59375 0 L 9.5 0 L 7.15625 -6.828125 Z M 5.96875 -14.75 C 5.207031 -11.050781 4.773438 -8.957031 4.671875 -8.46875 L 6.5625 -8.46875 C 8 -8.46875 9.109375 -8.785156 9.890625 -9.421875 C 10.671875 -10.054688 11.0625 -10.96875 11.0625 -12.15625 C 11.0625 -13.0625 10.804688 -13.71875 10.296875 -14.125 C 9.796875 -14.539062 8.976562 -14.75 7.84375 -14.75 Z M 5.96875 -14.75 "/></g></g></g><g fill="#ff993b" fill-opacity="0.302"><g transform="translate(144.049667, 274.206661)"><g><path d="M 15.84375 -10.1875 C 15.84375 -8.175781 15.515625 -6.375 14.859375 -4.78125 C 14.203125 -3.1875 13.257812 -1.953125 12.03125 -1.078125 C 10.800781 -0.210938 9.378906 0.21875 7.765625 0.21875 C 5.847656 0.21875 4.351562 -0.335938 3.28125 -1.453125 C 2.21875 -2.578125 1.6875 -4.148438 1.6875 -6.171875 C 1.6875 -8.140625 2.046875 -9.941406 2.765625 -11.578125 C 3.484375 -13.210938 4.46875 -14.46875 5.71875 -15.34375 C 6.976562 -16.226562 8.394531 -16.671875 9.96875 -16.671875 C 11.789062 -16.671875 13.222656 -16.09375 14.265625 -14.9375 C 15.316406 -13.789062 15.84375 -12.207031 15.84375 -10.1875 Z M 9.8125 -14.96875 C 8.632812 -14.96875 7.582031 -14.585938 6.65625 -13.828125 C 5.726562 -13.078125 5.007812 -12.023438 4.5 -10.671875 C 3.988281 -9.328125 3.734375 -7.835938 3.734375 -6.203125 C 3.734375 -4.710938 4.097656 -3.550781 4.828125 -2.71875 C 5.566406 -1.882812 6.5625 -1.46875 7.8125 -1.46875 C 8.957031 -1.46875 9.976562 -1.832031 10.875 -2.5625 C 11.78125 -3.289062 12.492188 -4.335938 13.015625 -5.703125 C 13.535156 -7.066406 13.796875 -8.578125 13.796875 -10.234375 C 13.796875 -11.722656 13.441406 -12.882812 12.734375 -13.71875 C 12.035156 -14.550781 11.0625 -14.96875 9.8125 -14.96875 Z M 9.8125 -14.96875 "/></g></g></g><g fill="#ff993b" fill-opacity="0.302"><g transform="translate(168.981058, 274.206661)"><g/></g></g><g fill="#ff993b" fill-opacity="0.302"><g transform="translate(183.325744, 274.206661)"><g><path d="M 5.46875 0 L 3.53125 0 L 6.65625 -14.71875 L 2.09375 -14.71875 L 2.453125 -16.421875 L 13.515625 -16.421875 L 13.1875 -14.71875 L 8.609375 -14.71875 Z M 5.46875 0 "/></g></g></g><g fill="#ff993b" fill-opacity="0.302"><g transform="translate(203.149006, 274.206661)"><g><path d="M 15.84375 -10.1875 C 15.84375 -8.175781 15.515625 -6.375 14.859375 -4.78125 C 14.203125 -3.1875 13.257812 -1.953125 12.03125 -1.078125 C 10.800781 -0.210938 9.378906 0.21875 7.765625 0.21875 C 5.847656 0.21875 4.351562 -0.335938 3.28125 -1.453125 C 2.21875 -2.578125 1.6875 -4.148438 1.6875 -6.171875 C 1.6875 -8.140625 2.046875 -9.941406 2.765625 -11.578125 C 3.484375 -13.210938 4.46875 -14.46875 5.71875 -15.34375 C 6.976562 -16.226562 8.394531 -16.671875 9.96875 -16.671875 C 11.789062 -16.671875 13.222656 -16.09375 14.265625 -14.9375 C 15.316406 -13.789062 15.84375 -12.207031 15.84375 -10.1875 Z M 9.8125 -14.96875 C 8.632812 -14.96875 7.582031 -14.585938 6.65625 -13.828125 C 5.726562 -13.078125 5.007812 -12.023438 4.5 -10.671875 C 3.988281 -9.328125 3.734375 -7.835938 3.734375 -6.203125 C 3.734375 -4.710938 4.097656 -3.550781 4.828125 -2.71875 C 5.566406 -1.882812 6.5625 -1.46875 7.8125 -1.46875 C 8.957031 -1.46875 9.976562 -1.832031 10.875 -2.5625 C 11.78125 -3.289062 12.492188 -4.335938 13.015625 -5.703125 C 13.535156 -7.066406 13.796875 -8.578125 13.796875 -10.234375 C 13.796875 -11.722656 13.441406 -12.882812 12.734375 -13.71875 C 12.035156 -14.550781 11.0625 -14.96875 9.8125 -14.96875 Z M 9.8125 -14.96875 "/></g></g></g><g fill="#ff993b" fill-opacity="0.302"><g transform="translate(228.080425, 274.206661)"><g/></g></g><g fill="#ff993b" fill-opacity="0.302"><g transform="translate(242.425083, 274.206661)"><g><path d="M 6.609375 0 L 4.671875 0 L 6.875 -10.25 C 7.3125 -12.207031 7.640625 -13.550781 7.859375 -14.28125 C 7.484375 -13.882812 6.960938 -13.46875 6.296875 -13.03125 L 4.296875 -11.796875 L 3.40625 -13.234375 L 8.453125 -16.421875 L 10.125 -16.421875 Z M 6.609375 0 "/></g></g></g><g fill="#ff993b" fill-opacity="0.302"><g transform="translate(263.460836, 274.206661)"><g><path d="M 12.265625 -11.390625 C 12.265625 -9.179688 11.96875 -7.160156 11.375 -5.328125 C 10.789062 -3.503906 9.988281 -2.125 8.96875 -1.1875 C 7.957031 -0.25 6.785156 0.21875 5.453125 0.21875 C 4.128906 0.21875 3.113281 -0.253906 2.40625 -1.203125 C 1.707031 -2.160156 1.359375 -3.546875 1.359375 -5.359375 C 1.359375 -7.378906 1.664062 -9.300781 2.28125 -11.125 C 2.894531 -12.957031 3.703125 -14.335938 4.703125 -15.265625 C 5.710938 -16.203125 6.867188 -16.671875 8.171875 -16.671875 C 10.898438 -16.671875 12.265625 -14.910156 12.265625 -11.390625 Z M 8.046875 -15.0625 C 7.203125 -15.0625 6.421875 -14.628906 5.703125 -13.765625 C 4.984375 -12.898438 4.398438 -11.691406 3.953125 -10.140625 C 3.515625 -8.585938 3.296875 -7 3.296875 -5.375 C 3.296875 -4.09375 3.476562 -3.101562 3.84375 -2.40625 C 4.21875 -1.71875 4.820312 -1.375 5.65625 -1.375 C 6.519531 -1.375 7.300781 -1.800781 8 -2.65625 C 8.707031 -3.507812 9.269531 -4.738281 9.6875 -6.34375 C 10.113281 -7.945312 10.328125 -9.644531 10.328125 -11.4375 C 10.328125 -13.851562 9.566406 -15.0625 8.046875 -15.0625 Z M 8.046875 -15.0625 "/></g></g></g><g fill="#ff993b" fill-opacity="0.302"><g transform="translate(284.496578, 274.206661)"><g><path d="M 12.265625 -11.390625 C 12.265625 -9.179688 11.96875 -7.160156 11.375 -5.328125 C 10.789062 -3.503906 9.988281 -2.125 8.96875 -1.1875 C 7.957031 -0.25 6.785156 0.21875 5.453125 0.21875 C 4.128906 0.21875 3.113281 -0.253906 2.40625 -1.203125 C 1.707031 -2.160156 1.359375 -3.546875 1.359375 -5.359375 C 1.359375 -7.378906 1.664062 -9.300781 2.28125 -11.125 C 2.894531 -12.957031 3.703125 -14.335938 4.703125 -15.265625 C 5.710938 -16.203125 6.867188 -16.671875 8.171875 -16.671875 C 10.898438 -16.671875 12.265625 -14.910156 12.265625 -11.390625 Z M 8.046875 -15.0625 C 7.203125 -15.0625 6.421875 -14.628906 5.703125 -13.765625 C 4.984375 -12.898438 4.398438 -11.691406 3.953125 -10.140625 C 3.515625 -8.585938 3.296875 -7 3.296875 -5.375 C 3.296875 -4.09375 3.476562 -3.101562 3.84375 -2.40625 C 4.21875 -1.71875 4.820312 -1.375 5.65625 -1.375 C 6.519531 -1.375 7.300781 -1.800781 8 -2.65625 C 8.707031 -3.507812 9.269531 -4.738281 9.6875 -6.34375 C 10.113281 -7.945312 10.328125 -9.644531 10.328125 -11.4375 C 10.328125 -13.851562 9.566406 -15.0625 8.046875 -15.0625 Z M 8.046875 -15.0625 "/></g></g></g><g fill="#ff993b" fill-opacity="1"><g transform="translate(79.863704, 272.173722)"><g><path d="M 9.9375 0 L -0.1875 0 L 0.140625 -1.53125 L 10.515625 -14.671875 L 3.15625 -14.671875 L 3.515625 -16.421875 L 13.15625 -16.421875 L 12.859375 -14.859375 L 2.484375 -1.734375 L 10.3125 -1.734375 Z M 9.9375 0 "/></g></g></g><g fill="#ff993b" fill-opacity="1"><g transform="translate(100.439162, 272.173722)"><g><path d="M 9.21875 0 L 0.96875 0 L 4.4375 -16.421875 L 12.6875 -16.421875 L 12.328125 -14.703125 L 5.96875 -14.703125 L 4.875 -9.4375 L 10.796875 -9.4375 L 10.46875 -7.734375 L 4.53125 -7.734375 L 3.25 -1.703125 L 9.59375 -1.703125 Z M 9.21875 0 "/></g></g></g><g fill="#ff993b" fill-opacity="1"><g transform="translate(120.565566, 272.173722)"><g><path d="M 4.328125 -6.828125 L 2.875 0 L 0.96875 0 L 4.4375 -16.421875 L 8.03125 -16.421875 C 11.363281 -16.421875 13.03125 -15.050781 13.03125 -12.3125 C 13.03125 -9.707031 11.65625 -8.023438 8.90625 -7.265625 L 11.59375 0 L 9.5 0 L 7.15625 -6.828125 Z M 5.96875 -14.75 C 5.207031 -11.050781 4.773438 -8.957031 4.671875 -8.46875 L 6.5625 -8.46875 C 8 -8.46875 9.109375 -8.785156 9.890625 -9.421875 C 10.671875 -10.054688 11.0625 -10.96875 11.0625 -12.15625 C 11.0625 -13.0625 10.804688 -13.71875 10.296875 -14.125 C 9.796875 -14.539062 8.976562 -14.75 7.84375 -14.75 Z M 5.96875 -14.75 "/></g></g></g><g fill="#ff993b" fill-opacity="1"><g transform="translate(142.016714, 272.173722)"><g><path d="M 15.84375 -10.1875 C 15.84375 -8.175781 15.515625 -6.375 14.859375 -4.78125 C 14.203125 -3.1875 13.257812 -1.953125 12.03125 -1.078125 C 10.800781 -0.210938 9.378906 0.21875 7.765625 0.21875 C 5.847656 0.21875 4.351562 -0.335938 3.28125 -1.453125 C 2.21875 -2.578125 1.6875 -4.148438 1.6875 -6.171875 C 1.6875 -8.140625 2.046875 -9.941406 2.765625 -11.578125 C 3.484375 -13.210938 4.46875 -14.46875 5.71875 -15.34375 C 6.976562 -16.226562 8.394531 -16.671875 9.96875 -16.671875 C 11.789062 -16.671875 13.222656 -16.09375 14.265625 -14.9375 C 15.316406 -13.789062 15.84375 -12.207031 15.84375 -10.1875 Z M 9.8125 -14.96875 C 8.632812 -14.96875 7.582031 -14.585938 6.65625 -13.828125 C 5.726562 -13.078125 5.007812 -12.023438 4.5 -10.671875 C 3.988281 -9.328125 3.734375 -7.835938 3.734375 -6.203125 C 3.734375 -4.710938 4.097656 -3.550781 4.828125 -2.71875 C 5.566406 -1.882812 6.5625 -1.46875 7.8125 -1.46875 C 8.957031 -1.46875 9.976562 -1.832031 10.875 -2.5625 C 11.78125 -3.289062 12.492188 -4.335938 13.015625 -5.703125 C 13.535156 -7.066406 13.796875 -8.578125 13.796875 -10.234375 C 13.796875 -11.722656 13.441406 -12.882812 12.734375 -13.71875 C 12.035156 -14.550781 11.0625 -14.96875 9.8125 -14.96875 Z M 9.8125 -14.96875 "/></g></g></g><g fill="#ff993b" fill-opacity="1"><g transform="translate(166.948104, 272.173722)"><g/></g></g><g fill="#ff993b" fill-opacity="1"><g transform="translate(181.292791, 272.173722)"><g><path d="M 5.46875 0 L 3.53125 0 L 6.65625 -14.71875 L 2.09375 -14.71875 L 2.453125 -16.421875 L 13.515625 -16.421875 L 13.1875 -14.71875 L 8.609375 -14.71875 Z M 5.46875 0 "/></g></g></g><g fill="#ff993b" fill-opacity="1"><g transform="translate(201.11605, 272.173722)"><g><path d="M 15.84375 -10.1875 C 15.84375 -8.175781 15.515625 -6.375 14.859375 -4.78125 C 14.203125 -3.1875 13.257812 -1.953125 12.03125 -1.078125 C 10.800781 -0.210938 9.378906 0.21875 7.765625 0.21875 C 5.847656 0.21875 4.351562 -0.335938 3.28125 -1.453125 C 2.21875 -2.578125 1.6875 -4.148438 1.6875 -6.171875 C 1.6875 -8.140625 2.046875 -9.941406 2.765625 -11.578125 C 3.484375 -13.210938 4.46875 -14.46875 5.71875 -15.34375 C 6.976562 -16.226562 8.394531 -16.671875 9.96875 -16.671875 C 11.789062 -16.671875 13.222656 -16.09375 14.265625 -14.9375 C 15.316406 -13.789062 15.84375 -12.207031 15.84375 -10.1875 Z M 9.8125 -14.96875 C 8.632812 -14.96875 7.582031 -14.585938 6.65625 -13.828125 C 5.726562 -13.078125 5.007812 -12.023438 4.5 -10.671875 C 3.988281 -9.328125 3.734375 -7.835938 3.734375 -6.203125 C 3.734375 -4.710938 4.097656 -3.550781 4.828125 -2.71875 C 5.566406 -1.882812 6.5625 -1.46875 7.8125 -1.46875 C 8.957031 -1.46875 9.976562 -1.832031 10.875 -2.5625 C 11.78125 -3.289062 12.492188 -4.335938 13.015625 -5.703125 C 13.535156 -7.066406 13.796875 -8.578125 13.796875 -10.234375 C 13.796875 -11.722656 13.441406 -12.882812 12.734375 -13.71875 C 12.035156 -14.550781 11.0625 -14.96875 9.8125 -14.96875 Z M 9.8125 -14.96875 "/></g></g></g><g fill="#ff993b" fill-opacity="1"><g transform="translate(226.047469, 272.173722)"><g/></g></g><g fill="#ff993b" fill-opacity="1"><g transform="translate(240.392127, 272.173722)"><g><path d="M 6.609375 0 L 4.671875 0 L 6.875 -10.25 C 7.3125 -12.207031 7.640625 -13.550781 7.859375 -14.28125 C 7.484375 -13.882812 6.960938 -13.46875 6.296875 -13.03125 L 4.296875 -11.796875 L 3.40625 -13.234375 L 8.453125 -16.421875 L 10.125 -16.421875 Z M 6.609375 0 "/></g></g></g><g fill="#ff993b" fill-opacity="1"><g transform="translate(261.427868, 272.173722)"><g><path d="M 12.265625 -11.390625 C 12.265625 -9.179688 11.96875 -7.160156 11.375 -5.328125 C 10.789062 -3.503906 9.988281 -2.125 8.96875 -1.1875 C 7.957031 -0.25 6.785156 0.21875 5.453125 0.21875 C 4.128906 0.21875 3.113281 -0.253906 2.40625 -1.203125 C 1.707031 -2.160156 1.359375 -3.546875 1.359375 -5.359375 C 1.359375 -7.378906 1.664062 -9.300781 2.28125 -11.125 C 2.894531 -12.957031 3.703125 -14.335938 4.703125 -15.265625 C 5.710938 -16.203125 6.867188 -16.671875 8.171875 -16.671875 C 10.898438 -16.671875 12.265625 -14.910156 12.265625 -11.390625 Z M 8.046875 -15.0625 C 7.203125 -15.0625 6.421875 -14.628906 5.703125 -13.765625 C 4.984375 -12.898438 4.398438 -11.691406 3.953125 -10.140625 C 3.515625 -8.585938 3.296875 -7 3.296875 -5.375 C 3.296875 -4.09375 3.476562 -3.101562 3.84375 -2.40625 C 4.21875 -1.71875 4.820312 -1.375 5.65625 -1.375 C 6.519531 -1.375 7.300781 -1.800781 8 -2.65625 C 8.707031 -3.507812 9.269531 -4.738281 9.6875 -6.34375 C 10.113281 -7.945312 10.328125 -9.644531 10.328125 -11.4375 C 10.328125 -13.851562 9.566406 -15.0625 8.046875 -15.0625 Z M 8.046875 -15.0625 "/></g></g></g><g fill="#ff993b" fill-opacity="1"><g transform="translate(282.463668, 272.173722)"><g><path d="M 12.265625 -11.390625 C 12.265625 -9.179688 11.96875 -7.160156 11.375 -5.328125 C 10.789062 -3.503906 9.988281 -2.125 8.96875 -1.1875 C 7.957031 -0.25 6.785156 0.21875 5.453125 0.21875 C 4.128906 0.21875 3.113281 -0.253906 2.40625 -1.203125 C 1.707031 -2.160156 1.359375 -3.546875 1.359375 -5.359375 C 1.359375 -7.378906 1.664062 -9.300781 2.28125 -11.125 C 2.894531 -12.957031 3.703125 -14.335938 4.703125 -15.265625 C 5.710938 -16.203125 6.867188 -16.671875 8.171875 -16.671875 C 10.898438 -16.671875 12.265625 -14.910156 12.265625 -11.390625 Z M 8.046875 -15.0625 C 7.203125 -15.0625 6.421875 -14.628906 5.703125 -13.765625 C 4.984375 -12.898438 4.398438 -11.691406 3.953125 -10.140625 C 3.515625 -8.585938 3.296875 -7 3.296875 -5.375 C 3.296875 -4.09375 3.476562 -3.101562 3.84375 -2.40625 C 4.21875 -1.71875 4.820312 -1.375 5.65625 -1.375 C 6.519531 -1.375 7.300781 -1.800781 8 -2.65625 C 8.707031 -3.507812 9.269531 -4.738281 9.6875 -6.34375 C 10.113281 -7.945312 10.328125 -9.644531 10.328125 -11.4375 C 10.328125 -13.851562 9.566406 -15.0625 8.046875 -15.0625 Z M 8.046875 -15.0625 "/></g></g></g></svg>