<svg xmlns="http://www.w3.org/2000/svg" xmlns:xlink="http://www.w3.org/1999/xlink" width="200" zoomAndPan="magnify" viewBox="0 0 150 74.999997" height="100" preserveAspectRatio="xMidYMid meet" version="1.0"><defs><clipPath id="355ea27ba4"><path d="M 4.847656 0 L 144.402344 0 L 144.402344 75 L 4.847656 75 Z M 4.847656 0 " clip-rule="nonzero"/></clipPath><clipPath id="e512b655cf"><path d="M 42.746094 44.234375 L 104.242188 44.234375 L 104.242188 74.984375 L 42.746094 74.984375 Z M 42.746094 44.234375 " clip-rule="nonzero"/></clipPath></defs><g clip-path="url(#355ea27ba4)"><path fill="#ed8545" d="M 124.011719 22.570312 C 123.683594 23.363281 123.175781 23.875 122.6875 24.375 C 119.878906 27.261719 117.070312 30.144531 114.1875 32.957031 C 111.289062 35.789062 108.554688 38.789062 105.691406 41.652344 C 102.410156 44.9375 99.714844 48.765625 96.324219 51.941406 C 96.019531 52.226562 95.683594 52.828125 95.25 52.417969 C 94.851562 52.039062 95.332031 51.5625 95.617188 51.253906 C 97.632812 49.078125 99.648438 46.894531 101.722656 44.773438 C 104.9375 41.472656 108.144531 38.164062 111.253906 34.753906 C 113.269531 32.542969 115.464844 30.5 117.601562 28.40625 C 119.339844 26.699219 121.105469 25.023438 122.867188 23.339844 C 123.167969 23.050781 123.433594 22.703125 124.011719 22.570312 Z M 23.488281 26.179688 C 25.089844 27.878906 26.699219 29.566406 28.300781 31.265625 C 34.082031 37.414062 40.332031 43.074219 46.21875 49.113281 C 47.308594 50.230469 48.488281 51.269531 49.742188 52.203125 C 49.945312 52.351562 50.199219 52.578125 50.445312 52.335938 C 50.738281 52.050781 50.476562 51.773438 50.292969 51.574219 C 49.773438 51.007812 49.265625 50.421875 48.679688 49.929688 C 41.851562 44.15625 36.019531 37.324219 29.46875 31.257812 C 27.429688 29.367188 25.496094 27.363281 23.210938 25.589844 C 23.203125 25.941406 23.367188 26.050781 23.488281 26.179688 Z M 143.683594 74.167969 C 139.84375 74.046875 136.007812 73.886719 132.167969 73.816406 C 128.378906 73.746094 124.59375 73.972656 120.816406 74.269531 C 117.351562 74.539062 113.875 74.429688 110.402344 74.492188 C 108.664062 74.523438 106.929688 74.597656 105.195312 74.671875 C 104.90625 74.683594 104.417969 74.59375 104.398438 74.976562 C 104.375 75.457031 104.914062 75.339844 105.203125 75.378906 C 106.195312 75.511719 107.203125 75.453125 108.195312 75.363281 C 112.65625 74.957031 117.121094 74.855469 121.597656 74.945312 C 128.859375 75.089844 136.117188 74.75 143.378906 74.617188 C 143.6875 74.613281 144.015625 74.644531 144.308594 74.390625 C 144.109375 74.167969 143.890625 74.175781 143.683594 74.167969 Z M 72.582031 0.871094 C 72.410156 3.910156 72.339844 6.953125 72.34375 9.996094 C 72.351562 16.085938 72.8125 22.160156 72.867188 28.246094 C 72.90625 32.601562 72.71875 36.949219 72.554688 41.296875 C 72.535156 41.773438 72.480469 42.261719 72.695312 42.714844 C 72.765625 42.867188 72.847656 43.007812 73.03125 42.996094 C 73.21875 42.988281 73.296875 42.832031 73.328125 42.671875 C 73.371094 42.464844 73.40625 42.25 73.410156 42.039062 C 73.464844 39.53125 73.542969 37.023438 73.554688 34.515625 C 73.570312 30.378906 73.367188 26.242188 73.246094 22.105469 C 73.105469 17.464844 73.148438 12.820312 73.089844 8.179688 C 73.058594 5.484375 73.128906 2.785156 72.835938 0 C 72.589844 0.335938 72.597656 0.605469 72.582031 0.871094 Z M 132.875 50.519531 C 125 53.53125 117.117188 56.53125 109.253906 59.578125 C 107.144531 60.394531 105.082031 61.351562 103.003906 62.257812 C 102.707031 62.390625 102.261719 62.527344 102.433594 62.972656 C 102.601562 63.402344 102.984375 63.132812 103.261719 63.050781 C 104.320312 62.726562 105.371094 62.382812 106.390625 61.941406 C 114.667969 58.371094 123.046875 55.046875 131.40625 51.667969 C 132.472656 51.238281 133.519531 50.757812 134.480469 50.113281 C 133.886719 50.082031 133.386719 50.324219 132.875 50.519531 Z M 5.378906 74.636719 C 9.980469 74.769531 14.582031 74.960938 19.179688 75.082031 C 25.148438 75.246094 31.125 75.121094 37.085938 75.605469 C 38.292969 75.703125 39.507812 75.65625 40.703125 75.425781 C 40.996094 75.371094 41.421875 75.359375 41.40625 74.933594 C 41.390625 74.511719 40.964844 74.503906 40.671875 74.507812 C 38.777344 74.550781 36.882812 74.367188 34.988281 74.488281 C 32.074219 74.671875 29.144531 74.746094 26.234375 74.550781 C 20.136719 74.140625 14.039062 74.03125 7.933594 74.203125 C 6.933594 74.230469 5.910156 74.226562 4.929688 74.589844 C 5.078125 74.605469 5.226562 74.632812 5.378906 74.636719 Z M 47.367188 16.695312 C 49.5625 21.460938 51.539062 26.324219 53.539062 31.171875 C 55.277344 35.378906 56.925781 39.628906 58.625 43.855469 C 58.84375 44.394531 59.136719 44.90625 59.40625 45.425781 C 59.507812 45.617188 59.648438 45.804688 59.898438 45.71875 C 60.171875 45.625 60.222656 45.378906 60.171875 45.125 C 60.128906 44.917969 60.0625 44.710938 59.980469 44.519531 C 59.539062 43.492188 59.113281 42.453125 58.632812 41.445312 C 56.167969 36.277344 53.960938 31 52.035156 25.597656 C 50.890625 22.382812 49.65625 19.203125 47.882812 16.273438 C 47.667969 15.921875 47.488281 15.515625 47.027344 15.316406 C 46.925781 15.855469 47.175781 16.277344 47.367188 16.695312 Z M 14.816406 52.1875 C 19.554688 53.957031 24.308594 55.695312 29.039062 57.484375 C 32.984375 58.980469 36.777344 60.839844 40.671875 62.457031 C 41.429688 62.773438 42.199219 63.042969 42.992188 63.234375 C 43.234375 63.292969 43.496094 63.289062 43.605469 63.015625 C 43.730469 62.691406 43.515625 62.515625 43.257812 62.398438 C 43.117188 62.332031 42.964844 62.285156 42.816406 62.234375 C 38.144531 60.664062 33.5625 58.855469 29.03125 56.910156 C 23.773438 54.648438 18.484375 52.472656 12.988281 50.863281 C 12.589844 50.746094 12.199219 50.5625 11.5625 50.695312 C 12.707031 51.394531 13.761719 51.792969 14.816406 52.1875 Z M 96.730469 13.605469 C 95.949219 15.300781 95.316406 17.058594 94.679688 18.808594 C 92.710938 24.242188 90.777344 29.691406 88.792969 35.117188 C 87.644531 38.269531 86.414062 41.390625 85.253906 44.539062 C 85.117188 44.902344 84.742188 45.511719 85.371094 45.710938 C 85.953125 45.898438 86.039062 45.238281 86.171875 44.835938 C 86.894531 42.632812 87.527344 40.398438 88.3125 38.21875 C 90.800781 31.304688 93.347656 24.410156 95.855469 17.5 C 96.414062 15.957031 97.035156 14.425781 97.375 12.730469 C 96.957031 12.953125 96.871094 13.300781 96.730469 13.605469 Z M 103.898438 32.242188 C 101.257812 35.804688 98.875 39.558594 96.097656 43.019531 C 94.75 44.699219 93.558594 46.492188 92.316406 48.25 C 92.066406 48.605469 91.539062 49.101562 92.035156 49.492188 C 92.566406 49.910156 92.847656 49.226562 93.113281 48.886719 C 93.617188 48.238281 94.082031 47.554688 94.519531 46.855469 C 96 44.488281 97.457031 42.101562 99.199219 39.921875 C 101.40625 37.160156 103.425781 34.265625 105.425781 31.351562 C 105.878906 30.6875 106.390625 30.027344 106.503906 29.15625 C 105.480469 30.0625 104.699219 31.164062 103.898438 32.242188 Z M 18.988281 68.679688 C 25.316406 69.332031 31.636719 70.007812 37.914062 71.070312 C 38.894531 71.234375 39.878906 71.480469 40.886719 71.378906 C 41.171875 71.351562 41.601562 71.351562 41.578125 70.902344 C 41.558594 70.53125 41.183594 70.515625 40.90625 70.476562 C 39.660156 70.292969 38.414062 70.078125 37.15625 69.964844 C 32.578125 69.542969 28.019531 68.914062 23.453125 68.382812 C 21.175781 68.121094 18.90625 68.214844 16.636719 68.390625 C 17.425781 68.496094 18.207031 68.601562 18.988281 68.679688 Z M 117.988281 38.445312 C 117.816406 38.5625 117.632812 38.667969 117.472656 38.800781 C 114.898438 40.878906 112.320312 42.953125 109.757812 45.046875 C 108.203125 46.320312 106.683594 47.644531 105.117188 48.902344 C 103.28125 50.378906 101.402344 51.800781 99.550781 53.257812 C 98.992188 53.699219 98.464844 54.191406 98.035156 54.769531 C 97.886719 54.96875 97.75 55.183594 97.964844 55.414062 C 98.171875 55.636719 98.402344 55.535156 98.609375 55.40625 C 98.746094 55.324219 98.867188 55.222656 98.984375 55.117188 C 99.949219 54.246094 100.890625 53.351562 101.875 52.507812 C 104.273438 50.460938 106.621094 48.347656 109.113281 46.433594 C 111.761719 44.398438 114.320312 42.265625 116.773438 40 C 117.253906 39.554688 117.78125 39.160156 118.289062 38.746094 C 118.1875 38.644531 118.089844 38.546875 117.988281 38.445312 Z M 28.589844 41.988281 C 34.390625 46.5 40.519531 50.550781 46.261719 55.144531 C 46.503906 55.339844 46.796875 55.480469 47.082031 55.613281 C 47.296875 55.714844 47.5625 55.78125 47.707031 55.507812 C 47.859375 55.21875 47.617188 55.078125 47.421875 54.9375 C 46.667969 54.40625 45.917969 53.867188 45.152344 53.34375 C 40.921875 50.453125 37.007812 47.117188 32.765625 44.238281 C 31.246094 43.207031 29.800781 42.050781 27.972656 41.292969 C 28.140625 41.707031 28.386719 41.832031 28.589844 41.988281 Z M 38.652344 33.527344 C 41.304688 37.050781 44.355469 40.226562 47.085938 43.683594 C 48.632812 45.636719 50.207031 47.570312 51.800781 49.484375 C 52.054688 49.789062 52.421875 50.398438 52.867188 49.972656 C 53.277344 49.582031 52.691406 49.222656 52.445312 48.933594 C 49.792969 45.828125 46.953125 42.875 44.570312 39.550781 C 42.761719 37.023438 40.679688 34.804688 38.183594 32.757812 C 38.265625 33.179688 38.5 33.328125 38.652344 33.527344 Z M 79.230469 23.164062 C 79.117188 23.871094 78.957031 24.578125 78.910156 25.296875 C 78.53125 30.78125 77.777344 36.222656 76.890625 41.644531 C 76.839844 41.957031 76.835938 42.28125 76.84375 42.597656 C 76.851562 42.816406 76.9375 43.035156 77.191406 43.0625 C 77.449219 43.089844 77.574219 42.902344 77.625 42.683594 C 77.746094 42.164062 77.894531 41.648438 77.953125 41.121094 C 78.527344 36.03125 79.097656 30.945312 79.492188 25.839844 C 79.566406 24.898438 79.5625 23.953125 79.433594 22.910156 C 79.316406 23.054688 79.242188 23.105469 79.230469 23.164062 Z M 65.089844 25.136719 C 65.390625 27.679688 65.96875 30.175781 66.335938 32.707031 C 66.753906 35.578125 67.097656 38.464844 67.480469 41.34375 C 67.535156 41.738281 67.609375 42.132812 67.714844 42.515625 C 67.796875 42.8125 67.867188 43.214844 68.28125 43.160156 C 68.714844 43.109375 68.652344 42.707031 68.644531 42.394531 C 68.632812 42.132812 68.585938 41.867188 68.542969 41.605469 C 67.769531 37.144531 67.011719 32.679688 66.214844 28.222656 C 65.988281 26.957031 65.835938 25.65625 65.21875 24.402344 C 64.972656 24.722656 65.066406 24.933594 65.089844 25.136719 Z M 31.882812 52.859375 C 33.578125 53.765625 35.28125 54.664062 37.011719 55.5 C 39.292969 56.605469 41.3125 58.183594 43.617188 59.238281 C 44 59.414062 44.375 59.621094 44.8125 59.617188 C 44.996094 59.613281 45.195312 59.601562 45.261719 59.378906 C 45.324219 59.175781 45.234375 59.007812 45.066406 58.898438 C 44.644531 58.628906 44.230469 58.339844 43.785156 58.113281 C 39.960938 56.160156 36.132812 54.210938 32.296875 52.285156 C 31.796875 52.035156 31.28125 51.734375 30.625 51.773438 C 30.871094 52.40625 31.417969 52.609375 31.882812 52.859375 Z M 84.757812 29.191406 C 84.296875 30.886719 83.761719 32.570312 83.40625 34.289062 C 82.820312 37.136719 81.804688 39.882812 81.449219 42.78125 C 81.390625 43.242188 81.074219 43.964844 81.691406 44.109375 C 82.417969 44.28125 82.433594 43.449219 82.484375 42.984375 C 82.886719 39.441406 83.933594 36.046875 84.695312 32.585938 C 84.988281 31.25 85.105469 29.890625 85.03125 28.484375 C 84.941406 28.71875 84.824219 28.949219 84.757812 29.191406 Z M 127.269531 68.242188 C 126.097656 68.371094 124.917969 68.453125 123.753906 68.640625 C 119.515625 69.316406 115.261719 69.835938 110.984375 70.171875 C 109.046875 70.324219 107.097656 70.464844 105.191406 70.886719 C 104.871094 70.957031 104.363281 70.984375 104.414062 71.394531 C 104.472656 71.890625 104.972656 71.640625 105.265625 71.601562 C 107.640625 71.289062 110.003906 70.90625 112.382812 70.628906 C 116.457031 70.15625 120.53125 69.65625 124.582031 69.011719 C 125.5 68.863281 126.394531 68.609375 127.300781 68.402344 C 127.292969 68.347656 127.28125 68.296875 127.269531 68.242188 Z M 95.394531 33.394531 C 93.988281 35.863281 92.855469 38.480469 91.398438 40.929688 C 90.503906 42.433594 89.761719 44.03125 88.957031 45.589844 C 88.785156 45.921875 88.636719 46.265625 88.613281 46.648438 C 88.597656 46.859375 88.578125 47.101562 88.835938 47.183594 C 89.050781 47.253906 89.1875 47.082031 89.277344 46.925781 C 89.597656 46.375 89.929688 45.828125 90.199219 45.25 C 91.652344 42.171875 93.050781 39.070312 94.796875 36.140625 C 95.390625 35.144531 95.980469 34.121094 96.296875 32.976562 C 96.347656 32.800781 96.519531 32.558594 96.128906 32.492188 C 95.78125 32.695312 95.589844 33.050781 95.394531 33.394531 Z M 58.957031 31.375 C 60.074219 35.234375 61.195312 39.09375 62.324219 42.949219 C 62.441406 43.355469 62.566406 43.765625 62.824219 44.117188 C 62.980469 44.324219 63.1875 44.445312 63.4375 44.324219 C 63.660156 44.21875 63.695312 43.992188 63.65625 43.777344 C 63.597656 43.460938 63.527344 43.148438 63.433594 42.84375 C 62.230469 38.984375 60.800781 35.203125 59.433594 31.398438 C 59.332031 31.117188 59.289062 30.769531 58.9375 30.621094 C 58.75 30.890625 58.886719 31.136719 58.957031 31.375 Z M 48.96875 36.292969 C 50.902344 39.257812 52.4375 42.460938 54.347656 45.433594 C 54.777344 46.105469 55.261719 46.742188 55.734375 47.378906 C 55.878906 47.570312 56.097656 47.75 56.347656 47.585938 C 56.589844 47.421875 56.527344 47.15625 56.421875 46.933594 C 56.292969 46.671875 56.144531 46.417969 55.980469 46.175781 C 53.855469 43.023438 51.890625 39.773438 49.929688 36.515625 C 49.515625 35.824219 48.992188 35.246094 48.230469 34.554688 C 48.410156 35.339844 48.667969 35.835938 48.96875 36.292969 Z M 28.902344 63.398438 C 28.824219 63.707031 29.167969 63.753906 29.363281 63.835938 C 29.773438 64.007812 30.199219 64.171875 30.632812 64.265625 C 33.179688 64.820312 35.683594 65.542969 38.171875 66.324219 C 39.226562 66.652344 40.316406 66.871094 41.394531 67.109375 C 41.710938 67.175781 42.136719 67.265625 42.25 66.796875 C 42.371094 66.304688 41.960938 66.15625 41.613281 66.042969 C 41.261719 65.929688 40.898438 65.847656 40.535156 65.789062 C 37.933594 65.378906 35.367188 64.800781 32.84375 64.03125 C 31.738281 63.695312 30.617188 63.390625 29.417969 63.246094 C 29.277344 63.335938 28.972656 63.132812 28.902344 63.398438 Z M 116.722656 64.257812 C 116.570312 64.257812 116.410156 64.238281 116.257812 64.261719 C 113.085938 64.75 109.914062 65.238281 106.746094 65.738281 C 105.8125 65.886719 104.863281 65.988281 103.988281 66.386719 C 103.714844 66.515625 103.308594 66.636719 103.425781 67.039062 C 103.542969 67.445312 103.949219 67.320312 104.246094 67.269531 C 107.152344 66.785156 110.046875 66.234375 112.898438 65.480469 C 114.1875 65.140625 115.464844 64.769531 116.75 64.410156 C 116.742188 64.359375 116.734375 64.308594 116.722656 64.257812 Z M 111.210938 53.28125 C 108.226562 54.792969 105.242188 56.300781 102.269531 57.832031 C 101.757812 58.09375 101.300781 58.460938 100.820312 58.789062 C 100.621094 58.929688 100.421875 59.113281 100.546875 59.382812 C 100.699219 59.707031 100.984375 59.59375 101.234375 59.511719 C 101.382812 59.460938 101.523438 59.382812 101.664062 59.3125 C 105.019531 57.707031 108.144531 55.691406 111.3125 53.75 C 111.570312 53.589844 111.871094 53.445312 111.949219 53.078125 C 111.652344 52.980469 111.433594 53.171875 111.210938 53.28125 Z M 24.636719 62.488281 C 24.632812 63 24.949219 63.265625 25.433594 63.277344 C 25.863281 63.289062 26.144531 63.066406 26.144531 62.613281 C 26.140625 62.097656 25.804688 61.875 25.363281 61.792969 C 24.917969 61.828125 24.640625 62.054688 24.636719 62.488281 Z M 27.929688 49.5 C 27.507812 49.511719 27.230469 49.78125 27.246094 50.21875 C 27.261719 50.679688 27.554688 50.953125 28.015625 50.949219 C 28.460938 50.949219 28.664062 50.664062 28.699219 50.210938 C 28.648438 49.765625 28.394531 49.488281 27.929688 49.5 Z M 86.042969 24.457031 C 85.625 24.464844 85.386719 24.789062 85.355469 25.1875 C 85.316406 25.644531 85.546875 25.976562 86.015625 25.988281 C 86.449219 26 86.65625 25.695312 86.703125 25.25 C 86.648438 24.863281 86.542969 24.449219 86.042969 24.457031 Z M 124.128906 61.773438 C 123.6875 61.804688 123.375 62.039062 123.390625 62.519531 C 123.40625 62.972656 123.714844 63.167969 124.132812 63.144531 C 124.578125 63.121094 124.855469 62.878906 124.882812 62.375 C 124.8125 61.964844 124.554688 61.742188 124.128906 61.773438 Z M 87.328125 20.410156 C 86.84375 20.445312 86.585938 20.78125 86.589844 21.265625 C 86.59375 21.671875 86.847656 21.90625 87.238281 21.898438 C 87.730469 21.890625 87.886719 21.539062 87.914062 21.054688 C 87.867188 20.734375 87.765625 20.378906 87.328125 20.410156 Z M 115.335938 51.367188 C 115.335938 50.960938 115.082031 50.730469 114.683594 50.738281 C 114.261719 50.746094 113.964844 50.972656 113.988281 51.421875 C 114.007812 51.824219 114.304688 52 114.6875 52.027344 C 115.070312 51.972656 115.339844 51.773438 115.335938 51.367188 Z M 56.59375 24.570312 C 56.585938 24.964844 56.785156 25.246094 57.183594 25.277344 C 57.613281 25.308594 57.882812 25.070312 57.914062 24.628906 C 57.949219 24.1875 57.707031 23.941406 57.253906 23.855469 C 56.871094 23.910156 56.605469 24.128906 56.59375 24.570312 Z M 46.003906 32.296875 C 46.019531 32.742188 46.285156 32.980469 46.710938 32.976562 C 47.078125 32.972656 47.289062 32.730469 47.28125 32.359375 C 47.269531 31.921875 47 31.703125 46.585938 31.667969 C 46.222656 31.726562 45.996094 31.921875 46.003906 32.296875 Z M 119.554688 63.445312 C 119.554688 63.808594 119.773438 64.039062 120.140625 64.046875 C 120.539062 64.054688 120.785156 63.824219 120.8125 63.429688 C 120.839844 63.035156 120.5625 62.890625 120.214844 62.835938 C 119.835938 62.855469 119.558594 63.023438 119.554688 63.445312 Z M 21.554688 60.992188 C 21.1875 61.019531 20.972656 61.246094 21.003906 61.625 C 21.035156 62.003906 21.296875 62.171875 21.652344 62.167969 C 22.023438 62.164062 22.230469 61.964844 22.253906 61.582031 C 22.191406 61.175781 21.960938 60.960938 21.554688 60.992188 Z M 117.914062 49.019531 C 117.515625 49.023438 117.265625 49.253906 117.285156 49.671875 C 117.304688 50.015625 117.546875 50.191406 117.878906 50.179688 C 118.25 50.167969 118.4375 49.9375 118.476562 49.574219 C 118.4375 49.230469 118.253906 49.015625 117.914062 49.019531 Z M 58.074219 27.191406 C 57.707031 27.207031 57.503906 27.441406 57.511719 27.816406 C 57.519531 28.160156 57.722656 28.355469 58.058594 28.359375 C 58.425781 28.363281 58.628906 28.148438 58.683594 27.742188 C 58.628906 27.421875 58.453125 27.175781 58.074219 27.191406 Z M 97.265625 29.542969 C 96.9375 29.546875 96.714844 29.71875 96.691406 30.070312 C 96.671875 30.421875 96.855469 30.644531 97.191406 30.664062 C 97.5625 30.6875 97.761719 30.453125 97.824219 30.066406 C 97.78125 29.753906 97.613281 29.539062 97.265625 29.542969 Z M 97.265625 29.542969 " fill-opacity="1" fill-rule="nonzero"/><path fill="#ed8545" d="M 124.011719 22.570312 C 123.683594 23.363281 123.175781 23.875 122.6875 24.375 C 119.878906 27.261719 117.070312 30.144531 114.1875 32.957031 C 111.289062 35.789062 108.554688 38.789062 105.691406 41.652344 C 102.410156 44.9375 99.714844 48.765625 96.324219 51.941406 C 96.019531 52.226562 95.683594 52.828125 95.25 52.417969 C 94.851562 52.039062 95.332031 51.5625 95.617188 51.253906 C 97.632812 49.078125 99.648438 46.894531 101.722656 44.773438 C 104.9375 41.472656 108.144531 38.164062 111.253906 34.753906 C 113.269531 32.542969 115.464844 30.5 117.601562 28.40625 C 119.339844 26.699219 121.105469 25.023438 122.867188 23.339844 C 123.167969 23.050781 123.433594 22.703125 124.011719 22.570312 Z M 23.488281 26.179688 C 25.089844 27.878906 26.699219 29.566406 28.300781 31.265625 C 34.082031 37.414062 40.332031 43.074219 46.21875 49.113281 C 47.308594 50.230469 48.488281 51.269531 49.742188 52.203125 C 49.945312 52.351562 50.199219 52.578125 50.445312 52.335938 C 50.738281 52.050781 50.476562 51.773438 50.292969 51.574219 C 49.773438 51.007812 49.265625 50.421875 48.679688 49.929688 C 41.851562 44.15625 36.019531 37.324219 29.46875 31.257812 C 27.429688 29.367188 25.496094 27.363281 23.210938 25.589844 C 23.203125 25.941406 23.367188 26.050781 23.488281 26.179688 Z M 143.683594 74.167969 C 139.84375 74.046875 136.007812 73.886719 132.167969 73.816406 C 128.378906 73.746094 124.59375 73.972656 120.816406 74.269531 C 117.351562 74.539062 113.875 74.429688 110.402344 74.492188 C 108.664062 74.523438 106.929688 74.597656 105.195312 74.671875 C 104.90625 74.683594 104.417969 74.59375 104.398438 74.976562 C 104.375 75.457031 104.914062 75.339844 105.203125 75.378906 C 106.195312 75.511719 107.203125 75.453125 108.195312 75.363281 C 112.65625 74.957031 117.121094 74.855469 121.597656 74.945312 C 128.859375 75.089844 136.117188 74.75 143.378906 74.617188 C 143.6875 74.613281 144.015625 74.644531 144.308594 74.390625 C 144.109375 74.167969 143.890625 74.175781 143.683594 74.167969 Z M 72.582031 0.871094 C 72.410156 3.910156 72.339844 6.953125 72.34375 9.996094 C 72.351562 16.085938 72.8125 22.160156 72.867188 28.246094 C 72.90625 32.601562 72.71875 36.949219 72.554688 41.296875 C 72.535156 41.773438 72.480469 42.261719 72.695312 42.714844 C 72.765625 42.867188 72.847656 43.007812 73.03125 42.996094 C 73.21875 42.988281 73.296875 42.832031 73.328125 42.671875 C 73.371094 42.464844 73.40625 42.25 73.410156 42.039062 C 73.464844 39.53125 73.542969 37.023438 73.554688 34.515625 C 73.570312 30.378906 73.367188 26.242188 73.246094 22.105469 C 73.105469 17.464844 73.148438 12.820312 73.089844 8.179688 C 73.058594 5.484375 73.128906 2.785156 72.835938 0 C 72.589844 0.335938 72.597656 0.605469 72.582031 0.871094 Z M 132.875 50.519531 C 125 53.53125 117.117188 56.53125 109.253906 59.578125 C 107.144531 60.394531 105.082031 61.351562 103.003906 62.257812 C 102.707031 62.390625 102.261719 62.527344 102.433594 62.972656 C 102.601562 63.402344 102.984375 63.132812 103.261719 63.050781 C 104.320312 62.726562 105.371094 62.382812 106.390625 61.941406 C 114.667969 58.371094 123.046875 55.046875 131.40625 51.667969 C 132.472656 51.238281 133.519531 50.757812 134.480469 50.113281 C 133.886719 50.082031 133.386719 50.324219 132.875 50.519531 Z M 5.378906 74.636719 C 9.980469 74.769531 14.582031 74.960938 19.179688 75.082031 C 25.148438 75.246094 31.125 75.121094 37.085938 75.605469 C 38.292969 75.703125 39.507812 75.65625 40.703125 75.425781 C 40.996094 75.371094 41.421875 75.359375 41.40625 74.933594 C 41.390625 74.511719 40.964844 74.503906 40.671875 74.507812 C 38.777344 74.550781 36.882812 74.367188 34.988281 74.488281 C 32.074219 74.671875 29.144531 74.746094 26.234375 74.550781 C 20.136719 74.140625 14.039062 74.03125 7.933594 74.203125 C 6.933594 74.230469 5.910156 74.226562 4.929688 74.589844 C 5.078125 74.605469 5.226562 74.632812 5.378906 74.636719 Z M 47.367188 16.695312 C 49.5625 21.460938 51.539062 26.324219 53.539062 31.171875 C 55.277344 35.378906 56.925781 39.628906 58.625 43.855469 C 58.84375 44.394531 59.136719 44.90625 59.40625 45.425781 C 59.507812 45.617188 59.648438 45.804688 59.898438 45.71875 C 60.171875 45.625 60.222656 45.378906 60.171875 45.125 C 60.128906 44.917969 60.0625 44.710938 59.980469 44.519531 C 59.539062 43.492188 59.113281 42.453125 58.632812 41.445312 C 56.167969 36.277344 53.960938 31 52.035156 25.597656 C 50.890625 22.382812 49.65625 19.203125 47.882812 16.273438 C 47.667969 15.921875 47.488281 15.515625 47.027344 15.316406 C 46.925781 15.855469 47.175781 16.277344 47.367188 16.695312 Z M 14.816406 52.1875 C 19.554688 53.957031 24.308594 55.695312 29.039062 57.484375 C 32.984375 58.980469 36.777344 60.839844 40.671875 62.457031 C 41.429688 62.773438 42.199219 63.042969 42.992188 63.234375 C 43.234375 63.292969 43.496094 63.289062 43.605469 63.015625 C 43.730469 62.691406 43.515625 62.515625 43.257812 62.398438 C 43.117188 62.332031 42.964844 62.285156 42.816406 62.234375 C 38.144531 60.664062 33.5625 58.855469 29.03125 56.910156 C 23.773438 54.648438 18.484375 52.472656 12.988281 50.863281 C 12.589844 50.746094 12.199219 50.5625 11.5625 50.695312 C 12.707031 51.394531 13.761719 51.792969 14.816406 52.1875 Z M 96.730469 13.605469 C 95.949219 15.300781 95.316406 17.058594 94.679688 18.808594 C 92.710938 24.242188 90.777344 29.691406 88.792969 35.117188 C 87.644531 38.269531 86.414062 41.390625 85.253906 44.539062 C 85.117188 44.902344 84.742188 45.511719 85.371094 45.710938 C 85.953125 45.898438 86.039062 45.238281 86.171875 44.835938 C 86.894531 42.632812 87.527344 40.398438 88.3125 38.21875 C 90.800781 31.304688 93.347656 24.410156 95.855469 17.5 C 96.414062 15.957031 97.035156 14.425781 97.375 12.730469 C 96.957031 12.953125 96.871094 13.300781 96.730469 13.605469 Z M 103.898438 32.242188 C 101.257812 35.804688 98.875 39.558594 96.097656 43.019531 C 94.75 44.699219 93.558594 46.492188 92.316406 48.25 C 92.066406 48.605469 91.539062 49.101562 92.035156 49.492188 C 92.566406 49.910156 92.847656 49.226562 93.113281 48.886719 C 93.617188 48.238281 94.082031 47.554688 94.519531 46.855469 C 96 44.488281 97.457031 42.101562 99.199219 39.921875 C 101.40625 37.160156 103.425781 34.265625 105.425781 31.351562 C 105.878906 30.6875 106.390625 30.027344 106.503906 29.15625 C 105.480469 30.0625 104.699219 31.164062 103.898438 32.242188 Z M 18.988281 68.679688 C 25.316406 69.332031 31.636719 70.007812 37.914062 71.070312 C 38.894531 71.234375 39.878906 71.480469 40.886719 71.378906 C 41.171875 71.351562 41.601562 71.351562 41.578125 70.902344 C 41.558594 70.53125 41.183594 70.515625 40.90625 70.476562 C 39.660156 70.292969 38.414062 70.078125 37.15625 69.964844 C 32.578125 69.542969 28.019531 68.914062 23.453125 68.382812 C 21.175781 68.121094 18.90625 68.214844 16.636719 68.390625 C 17.425781 68.496094 18.207031 68.601562 18.988281 68.679688 Z M 117.988281 38.445312 C 117.816406 38.5625 117.632812 38.667969 117.472656 38.800781 C 114.898438 40.878906 112.320312 42.953125 109.757812 45.046875 C 108.203125 46.320312 106.683594 47.644531 105.117188 48.902344 C 103.28125 50.378906 101.402344 51.800781 99.550781 53.257812 C 98.992188 53.699219 98.464844 54.191406 98.035156 54.769531 C 97.886719 54.96875 97.75 55.183594 97.964844 55.414062 C 98.171875 55.636719 98.402344 55.535156 98.609375 55.40625 C 98.746094 55.324219 98.867188 55.222656 98.984375 55.117188 C 99.949219 54.246094 100.890625 53.351562 101.875 52.507812 C 104.273438 50.460938 106.621094 48.347656 109.113281 46.433594 C 111.761719 44.398438 114.320312 42.265625 116.773438 40 C 117.253906 39.554688 117.78125 39.160156 118.289062 38.746094 C 118.1875 38.644531 118.089844 38.546875 117.988281 38.445312 Z M 28.589844 41.988281 C 34.390625 46.5 40.519531 50.550781 46.261719 55.144531 C 46.503906 55.339844 46.796875 55.480469 47.082031 55.613281 C 47.296875 55.714844 47.5625 55.78125 47.707031 55.507812 C 47.859375 55.21875 47.617188 55.078125 47.421875 54.9375 C 46.667969 54.40625 45.917969 53.867188 45.152344 53.34375 C 40.921875 50.453125 37.007812 47.117188 32.765625 44.238281 C 31.246094 43.207031 29.800781 42.050781 27.972656 41.292969 C 28.140625 41.707031 28.386719 41.832031 28.589844 41.988281 Z M 38.652344 33.527344 C 41.304688 37.050781 44.355469 40.226562 47.085938 43.683594 C 48.632812 45.636719 50.207031 47.570312 51.800781 49.484375 C 52.054688 49.789062 52.421875 50.398438 52.867188 49.972656 C 53.277344 49.582031 52.691406 49.222656 52.445312 48.933594 C 49.792969 45.828125 46.953125 42.875 44.570312 39.550781 C 42.761719 37.023438 40.679688 34.804688 38.183594 32.757812 C 38.265625 33.179688 38.5 33.328125 38.652344 33.527344 Z M 79.230469 23.164062 C 79.117188 23.871094 78.957031 24.578125 78.910156 25.296875 C 78.53125 30.78125 77.777344 36.222656 76.890625 41.644531 C 76.839844 41.957031 76.835938 42.28125 76.84375 42.597656 C 76.851562 42.816406 76.9375 43.035156 77.191406 43.0625 C 77.449219 43.089844 77.574219 42.902344 77.625 42.683594 C 77.746094 42.164062 77.894531 41.648438 77.953125 41.121094 C 78.527344 36.03125 79.097656 30.945312 79.492188 25.839844 C 79.566406 24.898438 79.5625 23.953125 79.433594 22.910156 C 79.316406 23.054688 79.242188 23.105469 79.230469 23.164062 Z M 65.089844 25.136719 C 65.390625 27.679688 65.96875 30.175781 66.335938 32.707031 C 66.753906 35.578125 67.097656 38.464844 67.480469 41.34375 C 67.535156 41.738281 67.609375 42.132812 67.714844 42.515625 C 67.796875 42.8125 67.867188 43.214844 68.28125 43.160156 C 68.714844 43.109375 68.652344 42.707031 68.644531 42.394531 C 68.632812 42.132812 68.585938 41.867188 68.542969 41.605469 C 67.769531 37.144531 67.011719 32.679688 66.214844 28.222656 C 65.988281 26.957031 65.835938 25.65625 65.21875 24.402344 C 64.972656 24.722656 65.066406 24.933594 65.089844 25.136719 Z M 31.882812 52.859375 C 33.578125 53.765625 35.28125 54.664062 37.011719 55.5 C 39.292969 56.605469 41.3125 58.183594 43.617188 59.238281 C 44 59.414062 44.375 59.621094 44.8125 59.617188 C 44.996094 59.613281 45.195312 59.601562 45.261719 59.378906 C 45.324219 59.175781 45.234375 59.007812 45.066406 58.898438 C 44.644531 58.628906 44.230469 58.339844 43.785156 58.113281 C 39.960938 56.160156 36.132812 54.210938 32.296875 52.285156 C 31.796875 52.035156 31.28125 51.734375 30.625 51.773438 C 30.871094 52.40625 31.417969 52.609375 31.882812 52.859375 Z M 84.757812 29.191406 C 84.296875 30.886719 83.761719 32.570312 83.40625 34.289062 C 82.820312 37.136719 81.804688 39.882812 81.449219 42.78125 C 81.390625 43.242188 81.074219 43.964844 81.691406 44.109375 C 82.417969 44.28125 82.433594 43.449219 82.484375 42.984375 C 82.886719 39.441406 83.933594 36.046875 84.695312 32.585938 C 84.988281 31.25 85.105469 29.890625 85.03125 28.484375 C 84.941406 28.71875 84.824219 28.949219 84.757812 29.191406 Z M 127.269531 68.242188 C 126.097656 68.371094 124.917969 68.453125 123.753906 68.640625 C 119.515625 69.316406 115.261719 69.835938 110.984375 70.171875 C 109.046875 70.324219 107.097656 70.464844 105.191406 70.886719 C 104.871094 70.957031 104.363281 70.984375 104.414062 71.394531 C 104.472656 71.890625 104.972656 71.640625 105.265625 71.601562 C 107.640625 71.289062 110.003906 70.90625 112.382812 70.628906 C 116.457031 70.15625 120.53125 69.65625 124.582031 69.011719 C 125.5 68.863281 126.394531 68.609375 127.300781 68.402344 C 127.292969 68.347656 127.28125 68.296875 127.269531 68.242188 Z M 95.394531 33.394531 C 93.988281 35.863281 92.855469 38.480469 91.398438 40.929688 C 90.503906 42.433594 89.761719 44.03125 88.957031 45.589844 C 88.785156 45.921875 88.636719 46.265625 88.613281 46.648438 C 88.597656 46.859375 88.578125 47.101562 88.835938 47.183594 C 89.050781 47.253906 89.1875 47.082031 89.277344 46.925781 C 89.597656 46.375 89.929688 45.828125 90.199219 45.25 C 91.652344 42.171875 93.050781 39.070312 94.796875 36.140625 C 95.390625 35.144531 95.980469 34.121094 96.296875 32.976562 C 96.347656 32.800781 96.519531 32.558594 96.128906 32.492188 C 95.78125 32.695312 95.589844 33.050781 95.394531 33.394531 Z M 58.957031 31.375 C 60.074219 35.234375 61.195312 39.09375 62.324219 42.949219 C 62.441406 43.355469 62.566406 43.765625 62.824219 44.117188 C 62.980469 44.324219 63.1875 44.445312 63.4375 44.324219 C 63.660156 44.21875 63.695312 43.992188 63.65625 43.777344 C 63.597656 43.460938 63.527344 43.148438 63.433594 42.84375 C 62.230469 38.984375 60.800781 35.203125 59.433594 31.398438 C 59.332031 31.117188 59.289062 30.769531 58.9375 30.621094 C 58.75 30.890625 58.886719 31.136719 58.957031 31.375 Z M 48.96875 36.292969 C 50.902344 39.257812 52.4375 42.460938 54.347656 45.433594 C 54.777344 46.105469 55.261719 46.742188 55.734375 47.378906 C 55.878906 47.570312 56.097656 47.75 56.347656 47.585938 C 56.589844 47.421875 56.527344 47.15625 56.421875 46.933594 C 56.292969 46.671875 56.144531 46.417969 55.980469 46.175781 C 53.855469 43.023438 51.890625 39.773438 49.929688 36.515625 C 49.515625 35.824219 48.992188 35.246094 48.230469 34.554688 C 48.410156 35.339844 48.667969 35.835938 48.96875 36.292969 Z M 28.902344 63.398438 C 28.824219 63.707031 29.167969 63.753906 29.363281 63.835938 C 29.773438 64.007812 30.199219 64.171875 30.632812 64.265625 C 33.179688 64.820312 35.683594 65.542969 38.171875 66.324219 C 39.226562 66.652344 40.316406 66.871094 41.394531 67.109375 C 41.710938 67.175781 42.136719 67.265625 42.25 66.796875 C 42.371094 66.304688 41.960938 66.15625 41.613281 66.042969 C 41.261719 65.929688 40.898438 65.847656 40.535156 65.789062 C 37.933594 65.378906 35.367188 64.800781 32.84375 64.03125 C 31.738281 63.695312 30.617188 63.390625 29.417969 63.246094 C 29.277344 63.335938 28.972656 63.132812 28.902344 63.398438 Z M 116.722656 64.257812 C 116.570312 64.257812 116.410156 64.238281 116.257812 64.261719 C 113.085938 64.75 109.914062 65.238281 106.746094 65.738281 C 105.8125 65.886719 104.863281 65.988281 103.988281 66.386719 C 103.714844 66.515625 103.308594 66.636719 103.425781 67.039062 C 103.542969 67.445312 103.949219 67.320312 104.246094 67.269531 C 107.152344 66.785156 110.046875 66.234375 112.898438 65.480469 C 114.1875 65.140625 115.464844 64.769531 116.75 64.410156 C 116.742188 64.359375 116.734375 64.308594 116.722656 64.257812 Z M 111.210938 53.28125 C 108.226562 54.792969 105.242188 56.300781 102.269531 57.832031 C 101.757812 58.09375 101.300781 58.460938 100.820312 58.789062 C 100.621094 58.929688 100.421875 59.113281 100.546875 59.382812 C 100.699219 59.707031 100.984375 59.59375 101.234375 59.511719 C 101.382812 59.460938 101.523438 59.382812 101.664062 59.3125 C 105.019531 57.707031 108.144531 55.691406 111.3125 53.75 C 111.570312 53.589844 111.871094 53.445312 111.949219 53.078125 C 111.652344 52.980469 111.433594 53.171875 111.210938 53.28125 Z M 24.636719 62.488281 C 24.632812 63 24.949219 63.265625 25.433594 63.277344 C 25.863281 63.289062 26.144531 63.066406 26.144531 62.613281 C 26.140625 62.097656 25.804688 61.875 25.363281 61.792969 C 24.917969 61.828125 24.640625 62.054688 24.636719 62.488281 Z M 27.929688 49.5 C 27.507812 49.511719 27.230469 49.78125 27.246094 50.21875 C 27.261719 50.679688 27.554688 50.953125 28.015625 50.949219 C 28.460938 50.949219 28.664062 50.664062 28.699219 50.210938 C 28.648438 49.765625 28.394531 49.488281 27.929688 49.5 Z M 86.042969 24.457031 C 85.625 24.464844 85.386719 24.789062 85.355469 25.1875 C 85.316406 25.644531 85.546875 25.976562 86.015625 25.988281 C 86.449219 26 86.65625 25.695312 86.703125 25.25 C 86.648438 24.863281 86.542969 24.449219 86.042969 24.457031 Z M 124.128906 61.773438 C 123.6875 61.804688 123.375 62.039062 123.390625 62.519531 C 123.40625 62.972656 123.714844 63.167969 124.132812 63.144531 C 124.578125 63.121094 124.855469 62.878906 124.882812 62.375 C 124.8125 61.964844 124.554688 61.742188 124.128906 61.773438 Z M 87.328125 20.410156 C 86.84375 20.445312 86.585938 20.78125 86.589844 21.265625 C 86.59375 21.671875 86.847656 21.90625 87.238281 21.898438 C 87.730469 21.890625 87.886719 21.539062 87.914062 21.054688 C 87.867188 20.734375 87.765625 20.378906 87.328125 20.410156 Z M 115.335938 51.367188 C 115.335938 50.960938 115.082031 50.730469 114.683594 50.738281 C 114.261719 50.746094 113.964844 50.972656 113.988281 51.421875 C 114.007812 51.824219 114.304688 52 114.6875 52.027344 C 115.070312 51.972656 115.339844 51.773438 115.335938 51.367188 Z M 56.59375 24.570312 C 56.585938 24.964844 56.785156 25.246094 57.183594 25.277344 C 57.613281 25.308594 57.882812 25.070312 57.914062 24.628906 C 57.949219 24.1875 57.707031 23.941406 57.253906 23.855469 C 56.871094 23.910156 56.605469 24.128906 56.59375 24.570312 Z M 46.003906 32.296875 C 46.019531 32.742188 46.285156 32.980469 46.710938 32.976562 C 47.078125 32.972656 47.289062 32.730469 47.28125 32.359375 C 47.269531 31.921875 47 31.703125 46.585938 31.667969 C 46.222656 31.726562 45.996094 31.921875 46.003906 32.296875 Z M 119.554688 63.445312 C 119.554688 63.808594 119.773438 64.039062 120.140625 64.046875 C 120.539062 64.054688 120.785156 63.824219 120.8125 63.429688 C 120.839844 63.035156 120.5625 62.890625 120.214844 62.835938 C 119.835938 62.855469 119.558594 63.023438 119.554688 63.445312 Z M 21.554688 60.992188 C 21.1875 61.019531 20.972656 61.246094 21.003906 61.625 C 21.035156 62.003906 21.296875 62.171875 21.652344 62.167969 C 22.023438 62.164062 22.230469 61.964844 22.253906 61.582031 C 22.191406 61.175781 21.960938 60.960938 21.554688 60.992188 Z M 117.914062 49.019531 C 117.515625 49.023438 117.265625 49.253906 117.285156 49.671875 C 117.304688 50.015625 117.546875 50.191406 117.878906 50.179688 C 118.25 50.167969 118.4375 49.9375 118.476562 49.574219 C 118.4375 49.230469 118.253906 49.015625 117.914062 49.019531 Z M 58.074219 27.191406 C 57.707031 27.207031 57.503906 27.441406 57.511719 27.816406 C 57.519531 28.160156 57.722656 28.355469 58.058594 28.359375 C 58.425781 28.363281 58.628906 28.148438 58.683594 27.742188 C 58.628906 27.421875 58.453125 27.175781 58.074219 27.191406 Z M 97.265625 29.542969 C 96.9375 29.546875 96.714844 29.71875 96.691406 30.070312 C 96.671875 30.421875 96.855469 30.644531 97.191406 30.664062 C 97.5625 30.6875 97.761719 30.453125 97.824219 30.066406 C 97.78125 29.753906 97.613281 29.539062 97.265625 29.542969 Z M 97.265625 29.542969 " fill-opacity="1" fill-rule="nonzero"/></g><g clip-path="url(#e512b655cf)"><path fill="#ed8545" d="M 42.769531 74.984375 C 42.769531 57.996094 56.535156 44.234375 73.519531 44.234375 C 90.503906 44.234375 104.21875 57.996094 104.21875 74.984375 Z M 42.769531 74.984375 " fill-opacity="1" fill-rule="nonzero"/></g></svg>